<?xml version="1.0" encoding="UTF-8" standalone="no"?>
<svg
   xmlns:dc="http://purl.org/dc/elements/1.1/"
   xmlns:cc="http://creativecommons.org/ns#"
   xmlns:rdf="http://www.w3.org/1999/02/22-rdf-syntax-ns#"
   xmlns:svg="http://www.w3.org/2000/svg"
   xmlns="http://www.w3.org/2000/svg"
   version="1.1"
   id="svg2"
   viewBox="0 0 744.09448819 1052.3622047"
   height="297mm"
   width="210mm">
  <defs
     id="defs4" />
  <metadata
     id="metadata7">
    <rdf:RDF>
      <cc:Work
         rdf:about="">
        <dc:format>image/svg+xml</dc:format>
        <dc:type
           rdf:resource="http://purl.org/dc/dcmitype/StillImage" />
        <dc:title></dc:title>
      </cc:Work>
    </rdf:RDF>
  </metadata>
  <g
     id="layer1">
    <flowRoot
       style="fill:black;stroke:none;stroke-opacity:1;stroke-width:1px;stroke-linejoin:miter;stroke-linecap:butt;fill-opacity:1;font-family:sans-serif;font-style:normal;font-weight:normal;font-size:40px;line-height:125%;letter-spacing:0px;word-spacing:0px"
       id="flowRoot3336"
       xml:space="preserve"><flowRegion
         id="flowRegion3338"><rect
           y="29.505062"
           x="17.142857"
           height="297.14285"
           width="717.14288"
           id="rect3340" /></flowRegion><flowPara
         id="flowPara3342" /></flowRoot>    <g
       id="text3344"
       style="font-style:normal;font-weight:normal;font-size:58.06749344px;line-height:125%;font-family:sans-serif;letter-spacing:0px;word-spacing:0px;fill:#000000;fill-opacity:1;stroke:none;stroke-width:1px;stroke-linecap:butt;stroke-linejoin:miter;stroke-opacity:1">
      <path
         id="path3572"
         style="font-style:normal;font-variant:normal;font-weight:normal;font-stretch:normal;font-family:'Patua One';-inkscape-font-specification:'Patua One';fill:#ffffff"
         d="m 41.923458,73.989086 0.580675,4.819602 q -0.92908,1.103282 -3.193712,1.974295 l 0,26.536847 q 2.322699,0.92908 3.193712,1.91622 l -0.580675,4.81961 -13.587794,0 -0.580675,-4.81961 q 0.754878,-0.98714 3.193713,-1.91622 l 0,-26.536847 Q 28.567934,79.91197 27.754989,78.808688 l 0.580675,-4.819602 13.587794,0 z" />
      <path
         id="path3574"
         style="font-style:normal;font-variant:normal;font-weight:normal;font-stretch:normal;font-family:'Patua One';-inkscape-font-specification:'Patua One';fill:#ffffff"
         d="m 46.473589,85.02191 q 3.193713,-0.69681 5.748682,-0.69681 2.55497,0 4.238927,0.116135 l 0,2.903374 q 1.451688,-1.219417 3.832455,-1.974294 2.438835,-0.812945 4.645399,-0.812945 5.690615,0 7.955247,2.671104 2.3227,2.671105 2.3227,9.232732 l 0,11.148954 q 2.264632,0.87102 3.193712,1.9743 l -0.580675,4.4712 -13.355524,0 -0.580675,-4.4712 q 0.812945,-1.10328 3.193713,-1.9743 l 0,-11.497359 q 0,-3.135645 -1.045215,-4.18086 -0.987148,-1.103282 -3.600185,-1.103282 -2.613037,0 -5.226074,1.85816 l 0,14.923341 q 2.264632,0.87102 3.193712,1.9743 l -0.580675,4.4712 -13.355524,0 -0.580675,-4.4712 q 0.812945,-1.10328 3.193713,-1.9743 l 0,-16.142759 q -2.032363,-0.696809 -3.193713,-1.974294 l 0.580675,-4.471197 z" />
      <path
         id="path3576"
         style="font-style:normal;font-variant:normal;font-weight:normal;font-stretch:normal;font-family:'Patua One';-inkscape-font-specification:'Patua One';fill:#ffffff"
         d="m 104.09469,77.705406 0,7.316504 8.30365,0 0,4.877669 -8.30365,0 0,14.691081 q 0,1.85815 0.52261,2.72917 0.5226,0.81294 2.4969,0.81294 1.97429,0 4.23892,-0.87101 l 1.74203,4.52926 q -4.4712,2.26464 -9.17466,2.26464 -4.645404,0 -6.329361,-1.9743 -1.62589,-2.03236 -1.62589,-5.86482 l 0,-16.316961 -2.613037,0 -0.638743,-3.542117 q 0.92908,-1.103282 3.832455,-2.206565 0.69681,-4.761534 3.309847,-6.445491 l 4.238929,0 z" />
      <path
         id="path3578"
         style="font-style:normal;font-variant:normal;font-weight:normal;font-stretch:normal;font-family:'Patua One';-inkscape-font-specification:'Patua One';fill:#ffffff"
         d="m 114.95875,72.827736 q 3.25178,-0.754877 6.03902,-0.754877 2.78724,0 4.70347,0.174202 l 0,14.516874 q 1.39362,-0.92908 3.71632,-1.567823 2.3227,-0.638742 4.12279,-0.638742 5.74868,0 7.95525,2.787239 2.20656,2.78724 2.20656,8.477854 l 0,11.787697 q 2.26464,0.87102 3.19372,1.9743 l -0.58068,4.4712 -13.35552,0 -0.58068,-4.4712 q 0.81295,-1.10328 3.19371,-1.9743 l 0,-11.497359 q 0,-3.135645 -1.04521,-4.18086 -0.98715,-1.103282 -3.65825,-1.103282 -2.67111,0 -5.16801,1.85816 l 0,14.923341 q 2.26463,0.87102 3.19371,1.9743 l -0.58067,4.4712 -13.35553,0 -0.58067,-4.4712 q 0.81294,-1.10328 3.19371,-1.9743 l 0,-28.336932 q -2.03236,-0.69681 -3.19371,-1.974295 l 0.58067,-4.471197 z" />
      <path
         id="path3580"
         style="font-style:normal;font-variant:normal;font-weight:normal;font-stretch:normal;font-family:'Patua One';-inkscape-font-specification:'Patua One';fill:#ffffff"
         d="m 162.92159,114.5202 q -6.96809,0 -10.51021,-3.71632 -3.48405,-3.71632 -3.48405,-10.80056 0,-4.296991 1.21942,-7.374569 1.21941,-3.135644 3.30984,-4.819602 4.06473,-3.251779 9.465,-3.251779 5.40028,0 8.24559,2.787239 2.90337,2.729173 2.90337,9.871474 0,4.180857 -4.12279,4.180857 l -12.60064,0 q 0.23227,3.65825 1.85815,5.16801 1.68396,1.50975 5.28415,1.50975 1.97429,0 3.77438,-0.46454 1.8001,-0.46454 2.61304,-0.92908 l 0.81295,-0.46454 1.74202,4.6454 q -0.3484,0.40648 -1.04521,1.04522 -0.63875,0.58067 -3.36792,1.62589 -2.6711,0.98715 -6.09709,0.98715 z m 3.65826,-18.291264 q 0.11613,-0.812945 0.11613,-1.974295 0,-1.16135 -0.92908,-2.438835 -0.92908,-1.335552 -3.25178,-1.335552 -2.26463,0 -3.48405,1.39362 -1.21941,1.39362 -1.62589,4.703467 l 9.17467,-0.348405 z" />
      <path
         id="path3582"
         style="font-style:normal;font-variant:normal;font-weight:normal;font-stretch:normal;font-family:'Patua One';-inkscape-font-specification:'Patua One';fill:#ffffff"
         d="m 204.49973,73.524546 q 12.54258,0 12.54258,10.161811 0,2.206565 -1.10329,4.703467 -1.10328,2.438835 -2.61303,4.238927 L 204.9062,102.7325 q -1.91623,2.20656 -4.52926,4.35506 l -0.92908,0.81294 0.29033,0.63874 q 2.67111,-0.5226 5.69062,-0.5226 l 4.58733,0 q 0.40647,-3.19372 1.45169,-4.99381 l 5.51641,0.34841 q 1.27748,2.20656 1.27748,7.02616 0,2.03237 -0.40647,3.65826 l -26.65298,0 -1.39362,-7.20037 14.45881,-15.678226 q 4.06472,-4.413129 4.06472,-8.477854 0,-2.09043 -1.04521,-3.077577 -1.04522,-0.987148 -3.71632,-0.987148 -2.67111,0 -4.58733,0.754878 -0.52261,4.296994 -1.33556,5.632547 l -5.168,-0.290338 q -1.10328,-1.916227 -1.21942,-6.445492 0,-0.987147 0.0581,-1.393619 5.22607,-3.367915 13.18132,-3.367915 z" />
      <path
         id="path3584"
         style="font-style:normal;font-variant:normal;font-weight:normal;font-stretch:normal;font-family:'Patua One';-inkscape-font-specification:'Patua One';fill:#ffffff"
         d="m 236.31891,114.5202 q -7.66491,0 -10.80056,-4.58734 -3.07758,-4.58733 -3.07758,-15.562084 0,-10.974756 3.48405,-15.910493 3.54212,-4.935737 11.2651,-4.935737 7.78104,0 10.85862,4.355062 3.13564,4.355062 3.13564,15.329818 0,10.974754 -3.60018,16.142764 -3.54212,5.16801 -11.26509,5.16801 z m -4.1228,-32.459732 q -1.04521,3.135644 -1.04521,11.555431 0,8.419791 1.16135,11.961901 1.16135,3.54212 4.4712,3.54212 2.78723,0 4.12279,-2.26463 1.56782,-2.61304 1.56782,-11.903839 0,-9.290799 -1.16135,-12.658713 -1.16135,-3.367915 -4.6454,-3.367915 -3.42598,0 -4.4712,3.135645 z" />
      <path
         id="path3586"
         style="font-style:normal;font-variant:normal;font-weight:normal;font-stretch:normal;font-family:'Patua One';-inkscape-font-specification:'Patua One';fill:#ffffff"
         d="m 265.47877,73.814883 q 1.56783,0 3.19372,0.174203 l 0,0.05807 0.0581,-0.05807 0,33.330744 q 2.3227,0.92908 3.19372,1.91622 l -0.58068,4.81961 -15.09755,0 -0.58067,-4.81961 q 1.04521,-1.27748 4.70346,-2.20656 l 0,-25.433562 q -3.25177,-0.348405 -5.22607,-1.219418 l 0,-4.413129 q 4.87767,-2.148498 10.33601,-2.148498 z" />
      <path
         id="path3588"
         style="font-style:normal;font-variant:normal;font-weight:normal;font-stretch:normal;font-family:'Patua One';-inkscape-font-specification:'Patua One';fill:#ffffff"
         d="m 288.97614,88.389824 q 5.69061,0 8.88432,3.077577 3.25178,3.01951 3.25178,9.058529 0,7.1423 -4.23892,10.56828 -4.18086,3.42599 -11.72964,3.42599 -2.43883,0 -5.34221,-0.69681 -2.90337,-0.69681 -4.47119,-1.62589 l 1.85816,-5.05188 q 3.30984,1.27749 7.1423,1.27749 3.83245,0 5.74868,-1.56782 1.91623,-1.56783 1.91623,-5.05187 0,-4.703472 -2.20657,-6.213226 -1.74202,-1.219418 -4.18086,-1.219418 -2.43883,0 -6.32935,0.580675 l -2.3227,-4.296994 -0.0581,0 0,-16.665371 21.4269,0 0,6.619694 -14.16847,0 0,8.129449 q 1.85816,-0.348405 4.81961,-0.348405 z" />
      <path
         id="path3590"
         style="font-style:normal;font-variant:normal;font-weight:normal;font-stretch:normal;font-family:'Patua One';-inkscape-font-specification:'Patua One';fill:#ffffff"
         d="m 344.58483,73.989086 0,10.103744 -4.297,0.522607 q -1.33555,-1.16135 -2.14849,-4.296994 l -9.05853,0 0,10.568284 8.07138,0 q 0.69681,-1.742025 1.45169,-2.438835 l 3.65825,0.406472 0,10.336014 -3.65825,0.46454 q -0.75488,-0.580675 -1.45169,-2.438835 l -8.07138,0 0,9.639207 q 3.89052,0.87101 5.63254,2.38076 l -0.58067,4.81961 -16.02663,0 -0.58067,-4.81961 q 0.75487,-0.98714 3.19371,-1.91622 l 0,-26.536847 q -2.38077,-0.871013 -3.19371,-1.974295 l 0.58067,-4.819602 26.47878,0 z" />
      <path
         id="path3592"
         style="font-style:normal;font-variant:normal;font-weight:normal;font-stretch:normal;font-family:'Patua One';-inkscape-font-specification:'Patua One';fill:#ffffff"
         d="m 361.50788,114.5202 q -6.9681,0 -10.51021,-3.71632 -3.48405,-3.71632 -3.48405,-10.80056 0,-4.296991 1.21941,-7.374569 1.21942,-3.135644 3.30985,-4.819602 4.06473,-3.251779 9.465,-3.251779 5.40028,0 8.24559,2.787239 2.90337,2.729173 2.90337,9.871474 0,4.180857 -4.12279,4.180857 l -12.60065,0 q 0.23227,3.65825 1.85816,5.16801 1.68396,1.50975 5.28415,1.50975 1.97429,0 3.77438,-0.46454 1.80009,-0.46454 2.61304,-0.92908 l 0.81294,-0.46454 1.74203,4.6454 q -0.34841,0.40648 -1.04522,1.04522 -0.63874,0.58067 -3.36791,1.62589 -2.6711,0.98715 -6.09709,0.98715 z m 3.65826,-18.291264 q 0.11613,-0.812945 0.11613,-1.974295 0,-1.16135 -0.92908,-2.438835 -0.92908,-1.335552 -3.25178,-1.335552 -2.26463,0 -3.48405,1.39362 -1.21942,1.39362 -1.62589,4.703467 l 9.17467,-0.348405 z" />
      <path
         id="path3594"
         style="font-style:normal;font-variant:normal;font-weight:normal;font-stretch:normal;font-family:'Patua One';-inkscape-font-specification:'Patua One';fill:#ffffff"
         d="m 390.68226,72.827736 q 3.30985,-0.754877 6.32936,-0.754877 3.01951,0 5.16801,0.174202 l 0,34.840499 q 1.74202,0.29033 3.19371,0.98714 l 0,4.58734 q -3.48405,1.85816 -8.82626,1.85816 -0.58067,-0.29034 -1.16135,-1.04522 -0.52261,-0.75488 -0.58067,-1.45169 -1.27749,1.04522 -3.30985,1.8001 -2.03236,0.69681 -4.00666,0.69681 -6.27129,0 -9.11659,-3.36792 -2.78724,-3.42598 -2.78724,-11.14896 0,-8.768188 4.29699,-12.310306 3.77439,-3.135644 9.2908,-3.135644 2.43883,0 4.87767,0.580675 l 0,-5.748682 q -2.67111,-0.754878 -3.94859,-2.09043 l 0.58067,-4.471197 z m -1.97429,35.769574 q 3.30985,0 5.34221,-1.97429 l 0,-15.562091 q -2.38077,-0.580675 -5.05187,-0.580675 -2.67111,0 -3.89053,2.380767 -1.16135,2.3227 -1.16135,7.026167 0,4.645402 1.16135,6.677762 1.16135,2.03236 3.60019,2.03236 z" />
      <path
         id="path3596"
         style="font-style:normal;font-variant:normal;font-weight:normal;font-stretch:normal;font-family:'Patua One';-inkscape-font-specification:'Patua One';fill:#ffffff"
         d="m 421.73023,114.5202 q -6.9681,0 -10.51021,-3.71632 -3.48405,-3.71632 -3.48405,-10.80056 0,-4.296991 1.21942,-7.374569 1.21941,-3.135644 3.30984,-4.819602 4.06473,-3.251779 9.465,-3.251779 5.40028,0 8.24559,2.787239 2.90337,2.729173 2.90337,9.871474 0,4.180857 -4.12279,4.180857 l -12.60065,0 q 0.23227,3.65825 1.85816,5.16801 1.68396,1.50975 5.28415,1.50975 1.97429,0 3.77438,-0.46454 1.8001,-0.46454 2.61304,-0.92908 l 0.81295,-0.46454 1.74202,4.6454 q -0.3484,0.40648 -1.04521,1.04522 -0.63875,0.58067 -3.36792,1.62589 -2.6711,0.98715 -6.09709,0.98715 z m 3.65826,-18.291264 q 0.11613,-0.812945 0.11613,-1.974295 0,-1.16135 -0.92908,-2.438835 -0.92908,-1.335552 -3.25178,-1.335552 -2.26463,0 -3.48405,1.39362 -1.21942,1.39362 -1.62589,4.703467 l 9.17467,-0.348405 z" />
      <path
         id="path3598"
         style="font-style:normal;font-variant:normal;font-weight:normal;font-stretch:normal;font-family:'Patua One';-inkscape-font-specification:'Patua One';fill:#ffffff"
         d="m 453.22731,92.164211 q -4.41312,0 -6.09708,1.683958 l 0,13.297451 q 4.70346,0.87102 6.44549,2.43884 l -0.58068,4.4712 -16.6073,0 -0.58067,-4.4712 q 0.81294,-1.10328 3.19371,-1.9743 l 0,-16.142759 q -2.03236,-0.696809 -3.19371,-1.974294 l 0.58067,-4.471197 q 3.19371,-0.69681 5.74868,-0.69681 2.55497,0 4.23893,0.116135 l 0,3.658252 q 1.33555,-1.567822 3.42598,-2.55497 2.09043,-1.045215 3.77439,-1.045215 1.74202,0 2.38077,0.290338 l -0.17421,7.548774 q -1.16135,-0.174203 -2.55497,-0.174203 z" />
      <path
         id="path3600"
         style="font-style:normal;font-variant:normal;font-weight:normal;font-stretch:normal;font-family:'Patua One';-inkscape-font-specification:'Patua One';fill:#ffffff"
         d="m 459.5376,89.318904 q 0,-0.871012 0.0581,-1.85816 5.40027,-2.903374 11.6135,-2.903374 6.21322,0 8.88432,2.380767 2.72917,2.3227 2.72917,7.781044 l 0,12.368379 q 2.03237,0.40647 3.19372,0.98714 l 0,5.05188 q -2.96145,1.39362 -8.47786,1.39362 -0.58067,-1.50976 -0.98714,-3.65826 -2.49691,3.65826 -9.05853,3.65826 -3.89053,0 -6.67777,-2.26464 -2.72917,-2.26463 -2.72917,-6.15515 0,-3.89052 2.55497,-6.09709 2.61304,-2.264629 7.72298,-2.264629 l 6.32936,0 0,-2.78724 q 0,-4.529264 -4.81961,-4.529264 -1.80009,0 -2.96144,0.348405 -0.11613,2.438834 -0.69681,3.774387 l -5.69061,0 q -0.98715,-2.032363 -0.98715,-5.226075 z m 10.45215,19.278406 q 2.96144,0 4.70347,-1.74202 l 0,-4.76154 -4.06473,0 q -4.18086,0 -4.18086,3.19371 0,1.45169 0.87101,2.38077 0.92908,0.92908 2.67111,0.92908 z" />
      <path
         id="path3602"
         style="font-style:normal;font-variant:normal;font-weight:normal;font-stretch:normal;font-family:'Patua One';-inkscape-font-specification:'Patua One';fill:#ffffff"
         d="m 487.97435,72.827736 q 3.25178,-0.754877 6.03902,-0.754877 2.78724,0 4.70346,0.174202 l 0,35.363099 q 2.26464,0.87102 3.19372,1.9743 l -0.58068,4.4712 -13.35552,0 -0.58068,-4.4712 q 0.81295,-1.10328 3.19372,-1.9743 l 0,-28.336932 q -2.03237,-0.69681 -3.19372,-1.974295 l 0.58068,-4.471197 z" />
      <path
         id="path3604"
         style="font-style:normal;font-variant:normal;font-weight:normal;font-stretch:normal;font-family:'Patua One';-inkscape-font-specification:'Patua One';fill:#ffffff"
         d="m 545.22344,114.05566 -26.94332,0 -0.58067,-4.81961 q 0.75487,-0.98714 3.19371,-1.91622 l 0,-26.536847 q -2.38077,-0.871013 -3.19371,-1.974295 l 0.58067,-4.819602 26.47878,0 0,10.103744 -4.297,0.522607 q -1.33555,-1.16135 -2.14849,-4.296994 l -9.05853,0 0,9.987609 8.07138,0 q 0.69681,-1.742025 1.45169,-2.438835 l 3.65825,0.406472 0,10.336014 -3.65825,0.46454 q -0.75488,-0.580675 -1.45169,-2.438835 l -8.07138,0 0,11.090892 9.52307,0 q 0.75487,-3.01951 2.14849,-4.29699 l 4.297,0.5226 0,10.10375 z" />
      <path
         id="path3606"
         style="font-style:normal;font-variant:normal;font-weight:normal;font-stretch:normal;font-family:'Patua One';-inkscape-font-specification:'Patua One';fill:#ffffff"
         d="m 548.53691,72.827736 q 3.25178,-0.754877 6.03902,-0.754877 2.78724,0 4.70347,0.174202 l 0,35.363099 q 2.26463,0.87102 3.19371,1.9743 l -0.58068,4.4712 -13.35552,0 -0.58068,-4.4712 q 0.81295,-1.10328 3.19372,-1.9743 l 0,-28.336932 q -2.03237,-0.69681 -3.19372,-1.974295 l 0.58068,-4.471197 z" />
      <path
         id="path3608"
         style="font-style:normal;font-variant:normal;font-weight:normal;font-stretch:normal;font-family:'Patua One';-inkscape-font-specification:'Patua One';fill:#ffffff"
         d="m 578.80732,114.5202 q -6.9681,0 -10.51021,-3.71632 -3.48405,-3.71632 -3.48405,-10.80056 0,-4.296991 1.21941,-7.374569 1.21942,-3.135644 3.30985,-4.819602 4.06472,-3.251779 9.465,-3.251779 5.40028,0 8.24559,2.787239 2.90337,2.729173 2.90337,9.871474 0,4.180857 -4.12279,4.180857 l -12.60065,0 q 0.23227,3.65825 1.85816,5.16801 1.68396,1.50975 5.28414,1.50975 1.9743,0 3.77439,-0.46454 1.80009,-0.46454 2.61304,-0.92908 l 0.81294,-0.46454 1.74203,4.6454 q -0.34841,0.40648 -1.04522,1.04522 -0.63874,0.58067 -3.36791,1.62589 -2.67111,0.98715 -6.09709,0.98715 z m 3.65825,-18.291264 q 0.11614,-0.812945 0.11614,-1.974295 0,-1.16135 -0.92908,-2.438835 -0.92908,-1.335552 -3.25178,-1.335552 -2.26463,0 -3.48405,1.39362 -1.21942,1.39362 -1.62589,4.703467 l 9.17466,-0.348405 z" />
      <path
         id="path3610"
         style="font-style:normal;font-variant:normal;font-weight:normal;font-stretch:normal;font-family:'Patua One';-inkscape-font-specification:'Patua One';fill:#ffffff"
         d="m 606.53005,90.480254 q -5.34221,0 -5.34221,9.174664 0,4.645402 1.45168,6.503562 1.50976,1.80009 4.297,1.80009 4.41313,0 7.78104,-0.81295 l 1.74203,4.4712 q -1.85816,1.21942 -4.99381,2.09043 -3.13564,0.81295 -6.09708,0.81295 -12.54258,0 -12.54258,-14.51688 0,-8.477851 4.35506,-12.194171 3.89052,-3.251779 9.465,-3.251779 5.57448,0 9.2908,2.09043 0.0581,0.580674 0.0581,1.103282 0,3.309847 -1.50976,6.271289 l -5.10994,0 q -0.81294,-1.451687 -0.98714,-3.484049 -0.69681,-0.05807 -1.85816,-0.05807 z" />
      <path
         id="path3612"
         style="font-style:normal;font-variant:normal;font-weight:normal;font-stretch:normal;font-family:'Patua One';-inkscape-font-specification:'Patua One';fill:#ffffff"
         d="m 629.53743,77.705406 0,7.316504 8.30365,0 0,4.877669 -8.30365,0 0,14.691081 q 0,1.85815 0.52261,2.72917 0.5226,0.81294 2.4969,0.81294 1.97429,0 4.23893,-0.87101 l 1.74202,4.52926 q -4.4712,2.26464 -9.17466,2.26464 -4.6454,0 -6.32936,-1.9743 -1.62589,-2.03236 -1.62589,-5.86482 l 0,-16.316961 -2.61304,0 -0.63874,-3.542117 q 0.92908,-1.103282 3.83246,-2.206565 0.69681,-4.761534 3.30984,-6.445491 l 4.23893,0 z" />
      <path
         id="path3614"
         style="font-style:normal;font-variant:normal;font-weight:normal;font-stretch:normal;font-family:'Patua One';-inkscape-font-specification:'Patua One';fill:#ffffff"
         d="m 641.21448,85.02191 q 3.25178,-0.754878 6.03902,-0.754878 2.78724,0 4.70346,0.174203 l 0,23.168925 q 2.26464,0.87102 3.19372,1.9743 l -0.58068,4.4712 -13.35552,0 -0.58068,-4.4712 q 0.81295,-1.10328 3.19372,-1.9743 l 0,-16.142759 q -2.03237,-0.696809 -3.19372,-1.974294 l 0.58068,-4.471197 z m 6.56163,-4.006657 q -4.81961,0 -4.81961,-4.355062 0,-4.41313 4.81961,-4.41313 4.87766,0 4.87766,4.41313 0,4.355062 -4.87766,4.355062 z" />
      <path
         id="path3616"
         style="font-style:normal;font-variant:normal;font-weight:normal;font-stretch:normal;font-family:'Patua One';-inkscape-font-specification:'Patua One';fill:#ffffff"
         d="m 670.94322,114.5202 q -6.85196,0 -10.16181,-3.65826 -3.30985,-3.65825 -3.30985,-11.032819 0,-7.43264 3.65826,-11.323162 3.71632,-3.948589 10.62635,-3.948589 6.91003,0 10.21988,3.484049 3.36791,3.48405 3.36791,10.916689 0,7.374572 -3.77439,11.497362 -3.71632,4.06473 -10.62635,4.06473 z m -5.10994,-15.213687 q 0,9.290797 5.57448,9.290797 2.84531,0 4.18086,-2.09043 1.39362,-2.14849 1.39362,-6.968097 0,-9.058529 -5.69061,-9.058529 -2.78724,0 -4.12279,2.032362 -1.33556,1.974295 -1.33556,6.793897 z" />
      <path
         id="path3618"
         style="font-style:normal;font-variant:normal;font-weight:normal;font-stretch:normal;font-family:'Patua One';-inkscape-font-specification:'Patua One';fill:#ffffff"
         d="m 688.84523,85.02191 q 3.19371,-0.69681 5.74868,-0.69681 2.55497,0 4.23893,0.116135 l 0,2.903374 q 1.45169,-1.219417 3.83245,-1.974294 2.43884,-0.812945 4.6454,-0.812945 5.69062,0 7.95525,2.671104 2.3227,2.671105 2.3227,9.232732 l 0,11.148954 q 2.26463,0.87102 3.19371,1.9743 l -0.58067,4.4712 -13.35553,0 -0.58067,-4.4712 q 0.81294,-1.10328 3.19371,-1.9743 l 0,-11.497359 q 0,-3.135645 -1.04521,-4.18086 -0.98715,-1.103282 -3.60019,-1.103282 -2.61304,0 -5.22607,1.85816 l 0,14.923341 q 2.26463,0.87102 3.19371,1.9743 l -0.58068,4.4712 -13.35552,0 -0.58067,-4.4712 q 0.81294,-1.10328 3.19371,-1.9743 l 0,-16.142759 q -2.03236,-0.696809 -3.19371,-1.974294 l 0.58067,-4.471197 z" />
    </g>
    <g
       id="text3352"
       style="font-style:normal;font-weight:normal;font-size:366.93084717px;line-height:125%;font-family:sans-serif;letter-spacing:0px;word-spacing:0px;fill:#000000;fill-opacity:1;stroke:none;stroke-width:1px;stroke-linecap:butt;stroke-linejoin:miter;stroke-opacity:1">
      <path
         id="path3565"
         style="font-style:normal;font-variant:normal;font-weight:normal;font-stretch:normal;font-family:'Patua One';-inkscape-font-specification:'Patua One';fill:#ffff00"
         d="m 112.09572,181.29165 -32.28991,0 q -2.568516,20.1812 -9.173271,31.55606 l -34.858431,-2.20159 q -8.072478,-13.94337 -8.072478,-43.29784 0,-12.47565 2.568516,-22.74971 l 168.788194,0 4.7701,28.98754 -93.56737,224.19474 -55.406558,0 72.285378,-172.82443 q 7.33862,-16.87881 18.71347,-36.32615 l 4.03624,-6.60475 -1.83465,-4.03624 q -16.87882,3.30237 -35.95923,3.30237 z" />
      <path
         id="path3567"
         style="font-style:normal;font-variant:normal;font-weight:normal;font-stretch:normal;font-family:'Patua One';-inkscape-font-specification:'Patua One';fill:#ffff00"
         d="m 308.75346,400.7163 q -48.43488,0 -68.24914,-28.98754 -19.44734,-28.98753 -19.44734,-98.33746 0,-69.34993 22.01585,-100.53906 22.38279,-31.18912 71.18459,-31.18912 49.16873,0 68.61607,27.51982 19.81426,27.51981 19.81426,96.86974 0,69.34993 -22.74971,102.00677 -22.38278,32.65685 -71.18458,32.65685 z M 282.70137,195.60196 q -6.60476,19.81426 -6.60476,73.01924 0,53.20497 7.33862,75.58775 7.33861,22.38278 28.25367,22.38278 17.61268,0 26.05209,-14.3103 9.90714,-16.51189 9.90714,-75.22083 0,-58.70893 -7.33862,-79.99092 -7.33862,-21.28199 -29.35447,-21.28199 -21.64892,0 -28.25367,19.81427 z" />
      <path
         id="path3569"
         style="font-style:normal;font-variant:normal;font-weight:normal;font-stretch:normal;font-family:'Patua One';-inkscape-font-specification:'Patua One';fill:#ffff00"
         d="m 497.05205,399.61551 q -1.83465,-5.8709 -1.83465,-14.67724 0,-9.17327 6.97168,-21.64892 l 121.82104,-229.69871 23.11665,8.07248 q 1.83465,5.8709 1.83465,14.67724 0,8.80634 -6.97168,22.01585 l -121.82105,229.33178 -23.11664,-8.07248 z m -70.45072,-187.8686 q 0,-35.59229 18.34654,-53.5719 18.34654,-17.97961 48.43487,-17.97961 30.45526,0 47.33408,16.14496 16.87882,15.77802 16.87882,52.10418 0,36.32615 -18.71347,55.03962 -18.34655,18.71348 -48.43487,18.71348 -63.84597,0 -63.84597,-70.45073 z m 64.94676,-40.36239 q -11.74179,0 -16.14496,7.33862 -4.03624,7.33861 -4.03624,31.55605 0,23.85051 4.7701,32.65685 4.7701,8.43941 16.14496,8.43941 11.74179,0 16.14496,-8.07248 4.40317,-8.07248 4.40317,-31.92299 0,-24.21743 -4.7701,-31.92298 -4.77011,-8.07248 -16.51189,-8.07248 z m 96.13588,158.88106 q 0,-35.59229 18.34654,-53.57191 18.34654,-17.97961 48.43487,-17.97961 30.45526,0 47.33408,16.14496 16.87882,15.77803 16.87882,52.10418 0,36.32615 -18.71347,55.03963 -18.34654,18.71347 -48.43487,18.71347 -63.84597,0 -63.84597,-70.45072 z m 64.94676,-40.3624 q -11.74179,0 -16.14496,7.33862 -4.03624,7.33862 -4.03624,31.55605 0,23.85051 4.7701,32.65685 4.77011,8.43941 16.14496,8.43941 11.74179,0 16.14496,-8.07248 4.40317,-8.07248 4.40317,-31.92298 0,-24.21744 -4.7701,-31.92299 -4.7701,-8.07248 -16.51189,-8.07248 z" />
    </g>
    <g
       id="text3344-7"
       style="font-style:normal;font-weight:normal;font-size:80.06206512px;line-height:125%;font-family:sans-serif;letter-spacing:0px;word-spacing:0px;fill:#000000;fill-opacity:1;stroke:none;stroke-width:1px;stroke-linecap:butt;stroke-linejoin:miter;stroke-opacity:1">
      <path
         id="path3530"
         style="font-style:normal;font-variant:normal;font-weight:normal;font-stretch:normal;font-family:'Patua One';-inkscape-font-specification:'Patua One';fill:#ffffff"
         d="m 46.457564,486.65539 q -9.447324,0 -14.010862,-5.04391 -4.563538,-5.04391 -4.563538,-15.21179 0,-10.24795 5.043911,-15.61211 5.123972,-5.44422 14.651357,-5.44422 9.527386,0 14.090924,4.80373 4.6436,4.80372 4.6436,15.05167 0,10.16788 -5.204035,15.85228 -5.123972,5.60435 -14.651357,5.60435 z m -7.045462,-20.97626 q 0,12.80993 7.685958,12.80993 3.923041,0 5.764469,-2.88224 1.921489,-2.96229 1.921489,-9.60744 0,-12.48969 -7.846082,-12.48969 -3.842979,0 -5.684407,2.80218 -1.841427,2.72211 -1.841427,9.36726 z" />
      <path
         id="path3532"
         style="font-style:normal;font-variant:normal;font-weight:normal;font-stretch:normal;font-family:'Patua One';-inkscape-font-specification:'Patua One';fill:#ffffff"
         d="m 74.743242,444.46268 q 0,-8.32645 3.602793,-12.48968 3.602793,-4.24329 11.448875,-4.24329 7.846083,0 13.61055,4.24329 0.0801,0.56043 0.0801,1.6813 0,1.04081 -0.56043,3.52273 -0.56044,2.48193 -1.52118,4.00311 l -6.725214,0 q -1.441117,-2.72211 -1.521179,-5.12398 -0.960745,-0.16012 -1.601241,-0.16012 -3.042359,0 -4.323352,1.6813 -1.280993,1.68131 -1.280993,6.08472 l 0,3.04236 12.249496,0 0,7.36571 -12.249496,0 0,22.65756 q 6.004655,1.20093 8.166331,3.12242 l -0.800621,6.16478 -22.177192,0 -0.80062,-6.16478 q 1.120869,-1.52118 4.403413,-2.72211 l 0,-23.05787 -3.522731,0 -0.880682,-5.52428 q 1.761365,-1.60125 4.403413,-1.84143 l 0,-2.24174 z" />
      <path
         id="path3534"
         style="font-style:normal;font-variant:normal;font-weight:normal;font-stretch:normal;font-family:'Patua One';-inkscape-font-specification:'Patua One';fill:#ffffff"
         d="m 120.57252,451.90845 q 0,-1.20093 0.0801,-2.56198 7.44577,-4.00311 16.01241,-4.00311 8.56664,0 12.2495,3.28255 3.76291,3.20248 3.76291,10.72831 l 0,17.05322 q 2.80217,0.56044 4.40342,1.36106 l 0,6.9654 q -4.08317,1.92149 -11.68907,1.92149 -0.80062,-2.08161 -1.36105,-5.04391 -3.44267,5.04391 -12.48968,5.04391 -5.36416,0 -9.20714,-3.12242 -3.76292,-3.12242 -3.76292,-8.48658 0,-5.36416 3.52273,-8.40652 3.6028,-3.12242 10.64826,-3.12242 l 8.72676,0 0,-3.84298 q 0,-6.24484 -6.64515,-6.24484 -2.48192,0 -4.08316,0.48037 -0.16013,3.36261 -0.96075,5.20404 l -7.84608,0 q -1.36106,-2.80217 -1.36106,-7.20559 z m 14.41118,26.58061 q 4.08316,0 6.48502,-2.40186 l 0,-6.56509 -5.60434,0 q -5.76447,0 -5.76447,4.40341 0,2.00155 1.20093,3.28255 1.28099,1.28099 3.68286,1.28099 z" />
      <path
         id="path3536"
         style="font-style:normal;font-variant:normal;font-weight:normal;font-stretch:normal;font-family:'Patua One';-inkscape-font-specification:'Patua One';fill:#ffffff"
         d="m 159.78041,429.17083 q 4.48348,-1.04081 8.32646,-1.04081 3.84298,0 6.48502,0.24019 l 0,48.75779 q 3.12243,1.20093 4.40342,2.72211 l -0.80062,6.16478 -18.41428,0 -0.80062,-6.16478 q 1.12087,-1.52118 4.40342,-2.72211 l 0,-39.07028 q -2.80218,-0.96075 -4.40342,-2.72211 l 0.80062,-6.16478 z" />
      <path
         id="path3538"
         style="font-style:normal;font-variant:normal;font-weight:normal;font-stretch:normal;font-family:'Patua One';-inkscape-font-specification:'Patua One';fill:#ffffff"
         d="m 182.1415,429.17083 q 4.48347,-1.04081 8.32645,-1.04081 3.84298,0 6.48503,0.24019 l 0,48.75779 q 3.12242,1.20093 4.40341,2.72211 l -0.80062,6.16478 -18.41427,0 -0.80062,-6.16478 q 1.12086,-1.52118 4.40341,-2.72211 l 0,-39.07028 q -2.80217,-0.96075 -4.40341,-2.72211 l 0.80062,-6.16478 z" />
      <path
         id="path3540"
         style="font-style:normal;font-variant:normal;font-weight:normal;font-stretch:normal;font-family:'Patua One';-inkscape-font-specification:'Patua One';fill:#ffffff"
         d="m 248.42539,486.49526 -8.80683,0 -13.13018,-31.2242 q -4.0031,-1.28099 -5.36416,-3.12242 l 0.80062,-6.16478 18.41428,0 0.80062,6.16478 q -1.04081,1.28099 -3.44267,2.3218 l 4.32335,12.08937 q 1.44112,3.76292 2.08161,7.44577 l 0.16013,1.12087 1.12087,0 q 0.64049,-4.0031 2.24174,-8.40652 l 4.24328,-11.84918 q -2.96229,-1.12087 -4.16322,-2.72211 l 0.80062,-6.16478 17.61365,0 0.80062,6.16478 q -1.44111,1.84143 -5.28409,3.12242 l -13.21024,31.2242 z" />
      <path
         id="path3542"
         style="font-style:normal;font-variant:normal;font-weight:normal;font-stretch:normal;font-family:'Patua One';-inkscape-font-specification:'Patua One';fill:#ffffff"
         d="m 286.48739,486.65539 q -9.44732,0 -14.01086,-5.04391 -4.56353,-5.04391 -4.56353,-15.21179 0,-10.24795 5.04391,-15.61211 5.12397,-5.44422 14.65135,-5.44422 9.52739,0 14.09093,4.80373 4.6436,4.80372 4.6436,15.05167 0,10.16788 -5.20404,15.85228 -5.12397,5.60435 -14.65136,5.60435 z m -7.04546,-20.97626 q 0,12.80993 7.68596,12.80993 3.92304,0 5.76447,-2.88224 1.92149,-2.96229 1.92149,-9.60744 0,-12.48969 -7.84608,-12.48969 -3.84298,0 -5.68441,2.80218 -1.84143,2.72211 -1.84143,9.36726 z" />
      <path
         id="path3544"
         style="font-style:normal;font-variant:normal;font-weight:normal;font-stretch:normal;font-family:'Patua One';-inkscape-font-specification:'Patua One';fill:#ffffff"
         d="m 324.94096,435.89604 0,10.08782 11.44887,0 0,6.72521 -11.44887,0 0,20.25571 q 0,2.56198 0.72055,3.76291 0.72056,1.12087 3.44267,1.12087 2.72211,0 5.84453,-1.20093 l 2.40187,6.24484 q -6.16478,3.12242 -12.64981,3.12242 -6.40497,0 -8.72677,-2.72211 -2.24173,-2.80217 -2.24173,-8.08627 l 0,-22.49744 -3.6028,0 -0.88068,-4.88378 q 1.28099,-1.52118 5.2841,-3.04236 0.96074,-6.56509 4.56353,-8.88689 l 5.84454,0 z" />
      <path
         id="path3546"
         style="font-style:normal;font-variant:normal;font-weight:normal;font-stretch:normal;font-family:'Patua One';-inkscape-font-specification:'Patua One';fill:#ffffff"
         d="m 359.29507,486.65539 q -9.60745,0 -14.49124,-5.12397 -4.80372,-5.12398 -4.80372,-14.89155 0,-5.92459 1.6813,-10.16788 1.6813,-4.32335 4.56354,-6.64515 5.60434,-4.48348 13.05012,-4.48348 7.44577,0 11.36881,3.84298 4.0031,3.76292 4.0031,13.61055 0,5.76447 -5.6844,5.76447 l -17.37347,0 q 0.32025,5.04391 2.56198,7.12553 2.3218,2.08161 7.28565,2.08161 2.72211,0 5.20404,-0.6405 2.48192,-0.64049 3.60279,-1.28099 l 1.12087,-0.6405 2.40186,6.40497 q -0.48037,0.56043 -1.44112,1.44112 -0.88068,0.80062 -4.6436,2.24173 -3.68285,1.36106 -8.40651,1.36106 z m 5.04391,-25.21955 q 0.16012,-1.12087 0.16012,-2.72211 0,-1.60124 -1.28099,-3.36261 -1.281,-1.84143 -4.48348,-1.84143 -3.12242,0 -4.80372,1.92149 -1.68131,1.92149 -2.24174,6.48503 l 12.64981,-0.48037 z" />
      <path
         id="path3548"
         style="font-style:normal;font-variant:normal;font-weight:normal;font-stretch:normal;font-family:'Patua One';-inkscape-font-specification:'Patua One';fill:#ffffff"
         d="m 394.7163,452.54895 q -5.2841,0 -5.2841,3.12242 0,2.9623 5.52429,4.40341 l 6.3249,1.68131 q 9.76757,2.56198 9.76757,11.28875 0,6.00465 -4.24329,9.84763 -4.16322,3.76292 -13.37036,3.76292 -9.12708,0 -14.25105,-2.56199 -0.0801,-0.88068 -0.0801,-1.76136 0,-4.40342 1.76136,-7.92615 l 6.64516,0 q 1.0408,1.92149 1.36105,4.00311 1.60124,0.48037 4.56354,0.48037 7.04546,0 7.04546,-4.0031 0,-1.281 -0.96074,-2.08162 -0.96075,-0.88068 -3.76292,-1.6813 l -6.32491,-1.84143 q -4.88378,-1.36105 -7.60589,-4.0031 -2.72211,-2.72211 -2.72211,-7.92615 0,-5.28409 4.24329,-8.6467 4.24329,-3.36261 12.08937,-3.36261 7.92614,0 13.37036,2.3218 0.0801,0.80062 0.0801,1.60124 0,4.16323 -1.76137,7.68596 l -6.56509,0 q -1.0408,-1.84142 -1.36105,-3.84298 -2.24174,-0.56043 -4.48348,-0.56043 z" />
      <path
         id="path3550"
         style="font-style:normal;font-variant:normal;font-weight:normal;font-stretch:normal;font-family:'Patua One';-inkscape-font-specification:'Patua One';fill:#ffffff"
         d="m 451.6229,453.50969 q -7.36571,0 -7.36571,12.64981 0,6.40497 2.00156,8.96695 2.08161,2.48193 5.92459,2.48193 6.08472,0 10.72832,-1.12087 l 2.40186,6.16478 q -2.56199,1.6813 -6.88534,2.88223 -4.32335,1.12087 -8.40652,1.12087 -17.2934,0 -17.2934,-20.01552 0,-11.68906 6.00465,-16.81303 5.36416,-4.48348 13.05012,-4.48348 7.68596,0 12.80993,2.88224 0.0801,0.80062 0.0801,1.52118 0,4.56353 -2.08161,8.6467 l -7.04546,0 q -1.12087,-2.00155 -1.36106,-4.80372 -0.96074,-0.0801 -2.56199,-0.0801 z" />
      <path
         id="path3552"
         style="font-style:normal;font-variant:normal;font-weight:normal;font-stretch:normal;font-family:'Patua One';-inkscape-font-specification:'Patua One';fill:#ffffff"
         d="m 470.37495,451.90845 q 0,-1.20093 0.0801,-2.56198 7.44577,-4.00311 16.01241,-4.00311 8.56664,0 12.24949,3.28255 3.76292,3.20248 3.76292,10.72831 l 0,17.05322 q 2.80217,0.56044 4.40342,1.36106 l 0,6.9654 q -4.08317,1.92149 -11.68907,1.92149 -0.80062,-2.08161 -1.36105,-5.04391 -3.44267,5.04391 -12.48968,5.04391 -5.36416,0 -9.20714,-3.12242 -3.76292,-3.12242 -3.76292,-8.48658 0,-5.36416 3.52273,-8.40652 3.6028,-3.12242 10.64826,-3.12242 l 8.72676,0 0,-3.84298 q 0,-6.24484 -6.64515,-6.24484 -2.48192,0 -4.08316,0.48037 -0.16013,3.36261 -0.96075,5.20404 l -7.84608,0 q -1.36106,-2.80217 -1.36106,-7.20559 z m 14.41118,26.58061 q 4.08316,0 6.48502,-2.40186 l 0,-6.56509 -5.60434,0 q -5.76447,0 -5.76447,4.40341 0,2.00155 1.20093,3.28255 1.28099,1.28099 3.68286,1.28099 z" />
      <path
         id="path3554"
         style="font-style:normal;font-variant:normal;font-weight:normal;font-stretch:normal;font-family:'Patua One';-inkscape-font-specification:'Patua One';fill:#ffffff"
         d="m 525.75536,452.54895 q -5.28409,0 -5.28409,3.12242 0,2.9623 5.52428,4.40341 l 6.3249,1.68131 q 9.76757,2.56198 9.76757,11.28875 0,6.00465 -4.24328,9.84763 -4.16323,3.76292 -13.37037,3.76292 -9.12707,0 -14.25105,-2.56199 -0.0801,-0.88068 -0.0801,-1.76136 0,-4.40342 1.76137,-7.92615 l 6.64515,0 q 1.0408,1.92149 1.36105,4.00311 1.60124,0.48037 4.56354,0.48037 7.04546,0 7.04546,-4.0031 0,-1.281 -0.96074,-2.08162 -0.96075,-0.88068 -3.76292,-1.6813 l -6.3249,-1.84143 q -4.88379,-1.36105 -7.6059,-4.0031 -2.72211,-2.72211 -2.72211,-7.92615 0,-5.28409 4.24329,-8.6467 4.24329,-3.36261 12.08937,-3.36261 7.92615,0 13.37037,2.3218 0.0801,0.80062 0.0801,1.60124 0,4.16323 -1.76137,7.68596 l -6.56509,0 q -1.0408,-1.84142 -1.36105,-3.84298 -2.24174,-0.56043 -4.48348,-0.56043 z" />
      <path
         id="path3556"
         style="font-style:normal;font-variant:normal;font-weight:normal;font-stretch:normal;font-family:'Patua One';-inkscape-font-specification:'Patua One';fill:#ffffff"
         d="m 560.43601,435.89604 0,10.08782 11.44888,0 0,6.72521 -11.44888,0 0,20.25571 q 0,2.56198 0.72056,3.76291 0.72056,1.12087 3.44267,1.12087 2.72211,0 5.84453,-1.20093 l 2.40186,6.24484 q -6.16478,3.12242 -12.6498,3.12242 -6.40497,0 -8.72677,-2.72211 -2.24174,-2.80217 -2.24174,-8.08627 l 0,-22.49744 -3.60279,0 -0.88068,-4.88378 q 1.28099,-1.52118 5.28409,-3.04236 0.96075,-6.56509 4.56354,-8.88689 l 5.84453,0 z" />
      <path
         id="path3558"
         style="font-style:normal;font-variant:normal;font-weight:normal;font-stretch:normal;font-family:'Patua One';-inkscape-font-specification:'Patua One';fill:#ffffff"
         d="m 593.39783,429.17083 q 4.48347,-1.04081 8.32645,-1.04081 3.84298,0 6.48503,0.24019 l 0,20.01551 q 1.92149,-1.28099 5.12397,-2.16167 3.20249,-0.88069 5.68441,-0.88069 7.92614,0 10.9685,3.84298 3.04236,3.84298 3.04236,11.68906 l 0,16.2526 q 3.12242,1.20093 4.40341,2.72211 l -0.80062,6.16478 -18.41427,0 -0.80062,-6.16478 q 1.12087,-1.52118 4.40341,-2.72211 l 0,-15.85229 q 0,-4.32335 -1.44112,-5.76446 -1.36105,-1.52118 -5.04391,-1.52118 -3.68285,0 -7.12552,2.56198 l 0,20.57595 q 3.12242,1.20093 4.40341,2.72211 l -0.80062,6.16478 -18.41427,0 -0.80062,-6.16478 q 1.12087,-1.52118 4.40341,-2.72211 l 0,-39.07028 q -2.80217,-0.96075 -4.40341,-2.72211 l 0.80062,-6.16478 z" />
      <path
         id="path3560"
         style="font-style:normal;font-variant:normal;font-weight:normal;font-stretch:normal;font-family:'Patua One';-inkscape-font-specification:'Patua One';fill:#ffffff"
         d="m 641.9142,451.90845 q 0,-1.20093 0.0801,-2.56198 7.44577,-4.00311 16.01241,-4.00311 8.56665,0 12.2495,3.28255 3.76292,3.20248 3.76292,10.72831 l 0,17.05322 q 2.80217,0.56044 4.40341,1.36106 l 0,6.9654 q -4.08316,1.92149 -11.68906,1.92149 -0.80062,-2.08161 -1.36106,-5.04391 -3.44266,5.04391 -12.48968,5.04391 -5.36416,0 -9.20714,-3.12242 -3.76291,-3.12242 -3.76291,-8.48658 0,-5.36416 3.52273,-8.40652 3.60279,-3.12242 10.64825,-3.12242 l 8.72677,0 0,-3.84298 q 0,-6.24484 -6.64515,-6.24484 -2.48193,0 -4.08317,0.48037 -0.16012,3.36261 -0.96074,5.20404 l -7.84609,0 q -1.36105,-2.80217 -1.36105,-7.20559 z m 14.41117,26.58061 q 4.08317,0 6.48503,-2.40186 l 0,-6.56509 -5.60435,0 q -5.76447,0 -5.76447,4.40341 0,2.00155 1.20094,3.28255 1.28099,1.28099 3.68285,1.28099 z" />
      <path
         id="path3562"
         style="font-style:normal;font-variant:normal;font-weight:normal;font-stretch:normal;font-family:'Patua One';-inkscape-font-specification:'Patua One';fill:#ffffff"
         d="m 702.09833,429.17083 q 4.56354,-1.04081 8.72677,-1.04081 4.16323,0 7.12552,0.24019 l 0,48.03723 q 2.40186,0.40032 4.40342,1.36106 l 0,6.3249 q -4.80373,2.56199 -12.16944,2.56199 -0.80062,-0.40031 -1.60124,-1.44112 -0.72056,-1.0408 -0.80062,-2.00155 -1.76137,1.44112 -4.56354,2.48192 -2.80217,0.96075 -5.52428,0.96075 -8.6467,0 -12.56974,-4.6436 -3.84298,-4.72366 -3.84298,-15.37192 0,-12.08937 5.92459,-16.97315 5.20403,-4.32336 12.80993,-4.32336 3.36261,0 6.72521,0.80062 l 0,-7.92614 q -3.68285,-1.04081 -5.44422,-2.88223 l 0.80062,-6.16478 z m -2.72211,49.31823 q 4.56354,0 7.36571,-2.72211 l 0,-21.45664 q -3.28254,-0.80062 -6.9654,-0.80062 -3.68285,0 -5.36416,3.28255 -1.60124,3.20248 -1.60124,9.68751 0,6.40496 1.60124,9.20714 1.60125,2.80217 4.96385,2.80217 z" />
    </g>
    <g
       id="text3344-7-3"
       style="font-style:normal;font-weight:normal;font-size:297.97573853px;line-height:125%;font-family:sans-serif;letter-spacing:0px;word-spacing:0px;fill:#000000;fill-opacity:1;stroke:none;stroke-width:1px;stroke-linecap:butt;stroke-linejoin:miter;stroke-opacity:1">
      <path
         id="path3521"
         style="font-style:normal;font-variant:normal;font-weight:normal;font-stretch:normal;font-family:'Patua One';-inkscape-font-specification:'Patua One';fill:#ffff00"
         d="m 105.15926,552.96128 -27.711744,0 q -2.08583,16.38867 -7.449393,25.62592 l -28.307696,-1.78786 q -6.555466,-11.32308 -6.555466,-35.16114 0,-10.13117 2.08583,-18.47449 l 145.114189,0 2.97975,23.54008 -86.412961,129.61945 q -8.045345,12.51498 -16.686641,19.6664 l -3.277733,2.3838 1.489878,3.27774 q 13.706884,-2.68179 29.201627,-2.68179 l 36.35304,0 q 2.08583,-16.38866 7.44939,-25.62591 l 28.30769,1.78785 q 6.55547,11.32308 6.55547,35.16114 0,10.13118 -2.08583,18.4745 l -153.75548,0 -2.979758,-23.54009 86.412968,-129.61944 q 8.04534,-12.51498 16.98461,-19.6664 l 2.97976,-2.38381 -1.48988,-3.27773 q -13.70688,2.68178 -29.20162,2.68178 z" />
      <path
         id="path3523"
         style="font-style:normal;font-variant:normal;font-weight:normal;font-stretch:normal;font-family:'Patua One';-inkscape-font-specification:'Patua One';fill:#ffff00"
         d="m 345.7188,728.76697 -138.26075,0 -2.97976,-24.73199 q 3.87369,-5.06559 16.38867,-9.8332 l 0,-136.17491 q -12.217,-4.46964 -16.38867,-10.13118 l 2.97976,-24.73198 135.87694,0 0,51.84778 -22.05021,2.68178 q -6.85344,-5.95952 -11.0251,-22.05021 l -46.48421,0 0,51.25183 41.41862,0 q 3.57571,-8.93927 7.4494,-12.51498 l 18.77247,2.08583 0,53.03968 -18.77247,2.38381 q -3.87369,-2.97976 -7.4494,-12.51498 l -41.41862,0 0,56.91336 48.86802,0 q 3.87368,-15.49474 11.0251,-22.0502 l 22.05021,2.68178 0,51.84778 z" />
      <path
         id="path3525"
         style="font-style:normal;font-variant:normal;font-weight:normal;font-stretch:normal;font-family:'Patua One';-inkscape-font-specification:'Patua One';fill:#ffff00"
         d="m 526.31072,583.35481 q 0,20.26235 -12.81296,33.96923 -12.51498,13.70689 -31.58543,20.8583 14.89879,6.25749 19.6664,15.19677 l 21.75223,41.41862 q 14.00486,4.76762 19.07045,11.02511 l -2.97976,22.94413 -50.3579,0 -34.26721,-73.00406 q -4.76761,-11.0251 -11.0251,-11.0251 l -19.36842,0 0,47.67612 q 21.75222,4.76761 27.11579,11.62105 l -2.97976,24.73199 -80.45345,0 -2.97976,-24.73199 q 3.87369,-5.06559 16.38867,-9.8332 l 0,-136.17491 q -12.21701,-4.46964 -16.38867,-10.13118 l 2.97976,-24.73198 75.98381,0 q 41.71661,0.59595 61.97896,13.40891 20.26235,12.81295 20.26235,46.78219 z m -84.32714,-27.71175 -17.58056,0 0,56.61539 16.98461,0 q 20.26235,0 30.09555,-5.95951 10.13118,-6.25749 10.13118,-22.05021 0,-15.79271 -10.13118,-22.0502 -10.13117,-6.55547 -29.4996,-6.55547 z" />
      <path
         id="path3527"
         style="font-style:normal;font-variant:normal;font-weight:normal;font-stretch:normal;font-family:'Patua One';-inkscape-font-specification:'Patua One';fill:#ffff00"
         d="m 633.90789,731.15077 q -42.31256,0 -63.46883,-24.43401 -20.85831,-24.43401 -20.85831,-78.96357 0,-54.82753 22.94414,-80.75142 23.2421,-26.22187 65.85263,-26.22187 42.90851,0 63.76681,23.24211 21.15628,23.24211 21.15628,77.77167 0,54.52956 -23.54008,81.94333 -23.54009,27.41376 -65.85264,27.41376 z M 605.00424,569.9459 q -10.72713,15.49474 -10.72713,53.93361 0,38.43887 11.32308,56.01944 11.32308,17.58057 30.98948,17.58057 19.96437,0 30.98948,-16.38867 11.0251,-16.68664 11.0251,-55.12551 0,-71.51418 -42.90851,-71.51418 -19.96437,0 -30.6915,15.49474 z" />
    </g>
    <g
       id="text3344-7-5"
       style="font-style:normal;font-weight:normal;font-size:80.06206512px;line-height:125%;font-family:sans-serif;letter-spacing:0px;word-spacing:0px;fill:#000000;fill-opacity:1;stroke:none;stroke-width:1px;stroke-linecap:butt;stroke-linejoin:miter;stroke-opacity:1">
      <path
         id="path3480"
         style="font-style:normal;font-variant:normal;font-weight:normal;font-stretch:normal;font-family:'Patua One';-inkscape-font-specification:'Patua One';fill:#ffffff"
         d="m 43.660359,776.10486 q -5.284097,0 -5.284097,3.12242 0,2.96229 5.524283,4.40341 l 6.324903,1.68131 q 9.767572,2.56198 9.767572,11.28875 0,6.00465 -4.24329,9.84763 -4.163227,3.76292 -13.370364,3.76292 -9.127076,0 -14.251048,-2.56199 -0.08006,-0.88068 -0.08006,-1.76136 0,-4.40342 1.761365,-7.92615 l 6.645152,0 q 1.040807,1.92149 1.361055,4.0031 1.601241,0.48038 4.563538,0.48038 7.045461,0 7.045461,-4.00311 0,-1.28099 -0.960745,-2.08161 -0.960744,-0.88068 -3.762917,-1.6813 l -6.324903,-1.84143 q -4.883786,-1.36106 -7.605896,-4.0031 -2.72211,-2.72211 -2.72211,-7.92615 0,-5.28409 4.243289,-8.6467 4.24329,-3.36261 12.089372,-3.36261 7.926145,0 13.370365,2.3218 0.08006,0.80062 0.08006,1.60124 0,4.16323 -1.761365,7.68596 l -6.56509,0 q -1.040807,-1.84143 -1.361055,-3.84298 -2.241738,-0.56043 -4.483475,-0.56043 z" />
      <path
         id="path3482"
         style="font-style:normal;font-variant:normal;font-weight:normal;font-stretch:normal;font-family:'Patua One';-inkscape-font-specification:'Patua One';fill:#ffffff"
         d="m 78.340995,759.45195 0,10.08782 11.448875,0 0,6.72521 -11.448875,0 0,20.2557 q 0,2.56199 0.720559,3.76292 0.720558,1.12087 3.442668,1.12087 2.722111,0 5.844531,-1.20093 l 2.401862,6.24484 q -6.164779,3.12242 -12.649806,3.12242 -6.404965,0 -8.726765,-2.72211 -2.241738,-2.80217 -2.241738,-8.08627 l 0,-22.49744 -3.602793,0 -0.880683,-4.88378 q 1.280993,-1.52118 5.284097,-3.04236 0.960744,-6.56509 4.563537,-8.88689 l 5.844531,0 z" />
      <path
         id="path3484"
         style="font-style:normal;font-variant:normal;font-weight:normal;font-stretch:normal;font-family:'Patua One';-inkscape-font-specification:'Patua One';fill:#ffffff"
         d="m 95.08147,775.46436 q 0,-1.20093 0.08006,-2.56199 7.445768,-4.0031 16.012408,-4.0031 8.56665,0 12.2495,3.28255 3.76292,3.20248 3.76292,10.72831 l 0,17.05322 q 2.80217,0.56044 4.40341,1.36106 l 0,6.9654 q -4.08316,1.92149 -11.68906,1.92149 -0.80062,-2.08162 -1.36106,-5.04391 -3.44266,5.04391 -12.48968,5.04391 -5.36416,0 -9.207135,-3.12242 -3.762917,-3.12242 -3.762917,-8.48658 0,-5.36416 3.522731,-8.40652 3.602791,-3.12242 10.648251,-3.12242 l 8.72677,0 0,-3.84298 q 0,-6.24484 -6.64515,-6.24484 -2.48193,0 -4.08317,0.48037 -0.16012,3.36261 -0.96074,5.20404 l -7.846085,0 q -1.361055,-2.80218 -1.361055,-7.20559 z m 14.41117,26.58061 q 4.08317,0 6.48503,-2.40187 l 0,-6.56508 -5.60435,0 q -5.76446,0 -5.76446,4.40341 0,2.00155 1.20093,3.28254 1.28099,1.281 3.68285,1.281 z" />
      <path
         id="path3486"
         style="font-style:normal;font-variant:normal;font-weight:normal;font-stretch:normal;font-family:'Patua One';-inkscape-font-specification:'Patua One';fill:#ffffff"
         d="m 149.02079,759.45195 0,10.08782 11.44887,0 0,6.72521 -11.44887,0 0,20.2557 q 0,2.56199 0.72055,3.76292 0.72056,1.12087 3.44267,1.12087 2.72211,0 5.84453,-1.20093 l 2.40187,6.24484 q -6.16478,3.12242 -12.64981,3.12242 -6.40497,0 -8.72677,-2.72211 -2.24173,-2.80217 -2.24173,-8.08627 l 0,-22.49744 -3.6028,0 -0.88068,-4.88378 q 1.28099,-1.52118 5.2841,-3.04236 0.96074,-6.56509 4.56353,-8.88689 l 5.84454,0 z" />
      <path
         id="path3488"
         style="font-style:normal;font-variant:normal;font-weight:normal;font-stretch:normal;font-family:'Patua One';-inkscape-font-specification:'Patua One';fill:#ffffff"
         d="m 165.12078,769.53977 q 4.48347,-1.04081 8.32645,-1.04081 3.84298,0 6.48503,0.24019 l 0,31.94476 q 3.12242,1.20093 4.40341,2.72211 l -0.80062,6.16478 -18.41427,0 -0.80063,-6.16478 q 1.12087,-1.52118 4.40342,-2.72211 l 0,-22.25725 q -2.80217,-0.96075 -4.40342,-2.72211 l 0.80063,-6.16478 z m 9.04701,-5.52428 q -6.64515,0 -6.64515,-6.00466 0,-6.08472 6.64515,-6.08472 6.72521,0 6.72521,6.08472 0,6.00466 -6.72521,6.00466 z" />
      <path
         id="path3490"
         style="font-style:normal;font-variant:normal;font-weight:normal;font-stretch:normal;font-family:'Patua One';-inkscape-font-specification:'Patua One';fill:#ffffff"
         d="m 203.62812,776.10486 q -5.2841,0 -5.2841,3.12242 0,2.96229 5.52428,4.40341 l 6.32491,1.68131 q 9.76757,2.56198 9.76757,11.28875 0,6.00465 -4.24329,9.84763 -4.16323,3.76292 -13.37037,3.76292 -9.12707,0 -14.25104,-2.56199 -0.0801,-0.88068 -0.0801,-1.76136 0,-4.40342 1.76137,-7.92615 l 6.64515,0 q 1.04081,1.92149 1.36106,4.0031 1.60124,0.48038 4.56353,0.48038 7.04547,0 7.04547,-4.00311 0,-1.28099 -0.96075,-2.08161 -0.96074,-0.88068 -3.76292,-1.6813 l -6.3249,-1.84143 q -4.88379,-1.36106 -7.6059,-4.0031 -2.72211,-2.72211 -2.72211,-7.92615 0,-5.28409 4.24329,-8.6467 4.24329,-3.36261 12.08938,-3.36261 7.92614,0 13.37036,2.3218 0.0801,0.80062 0.0801,1.60124 0,4.16323 -1.76136,7.68596 l -6.56509,0 q -1.04081,-1.84143 -1.36106,-3.84298 -2.24174,-0.56043 -4.48347,-0.56043 z" />
      <path
         id="path3492"
         style="font-style:normal;font-variant:normal;font-weight:normal;font-stretch:normal;font-family:'Patua One';-inkscape-font-specification:'Patua One';fill:#ffffff"
         d="m 238.30875,759.45195 0,10.08782 11.44887,0 0,6.72521 -11.44887,0 0,20.2557 q 0,2.56199 0.72056,3.76292 0.72056,1.12087 3.44267,1.12087 2.72211,0 5.84453,-1.20093 l 2.40186,6.24484 q -6.16478,3.12242 -12.64981,3.12242 -6.40496,0 -8.72676,-2.72211 -2.24174,-2.80217 -2.24174,-8.08627 l 0,-22.49744 -3.60279,0 -0.88069,-4.88378 q 1.281,-1.52118 5.2841,-3.04236 0.96075,-6.56509 4.56354,-8.88689 l 5.84453,0 z" />
      <path
         id="path3494"
         style="font-style:normal;font-variant:normal;font-weight:normal;font-stretch:normal;font-family:'Patua One';-inkscape-font-specification:'Patua One';fill:#ffffff"
         d="m 254.40874,769.53977 q 4.48347,-1.04081 8.32645,-1.04081 3.84298,0 6.48503,0.24019 l 0,31.94476 q 3.12242,1.20093 4.40341,2.72211 l -0.80062,6.16478 -18.41427,0 -0.80062,-6.16478 q 1.12087,-1.52118 4.40341,-2.72211 l 0,-22.25725 q -2.80217,-0.96075 -4.40341,-2.72211 l 0.80062,-6.16478 z m 9.04701,-5.52428 q -6.64515,0 -6.64515,-6.00466 0,-6.08472 6.64515,-6.08472 6.72522,0 6.72522,6.08472 0,6.00466 -6.72522,6.00466 z" />
      <path
         id="path3496"
         style="font-style:normal;font-variant:normal;font-weight:normal;font-stretch:normal;font-family:'Patua One';-inkscape-font-specification:'Patua One';fill:#ffffff"
         d="m 295.71825,777.0656 q -7.36571,0 -7.36571,12.64981 0,6.40496 2.00155,8.96695 2.08162,2.48192 5.9246,2.48192 6.08471,0 10.72831,-1.12086 l 2.40187,6.16477 q -2.56199,1.68131 -6.88534,2.88224 -4.32335,1.12087 -8.40652,1.12087 -17.2934,0 -17.2934,-20.01552 0,-11.68906 6.00465,-16.81303 5.36416,-4.48348 13.05012,-4.48348 7.68596,0 12.80993,2.88224 0.0801,0.80062 0.0801,1.52118 0,4.56353 -2.08161,8.6467 l -7.04547,0 q -1.12086,-2.00155 -1.36105,-4.80373 -0.96075,-0.0801 -2.56199,-0.0801 z" />
      <path
         id="path3498"
         style="font-style:normal;font-variant:normal;font-weight:normal;font-stretch:normal;font-family:'Patua One';-inkscape-font-specification:'Patua One';fill:#ffffff"
         d="m 314.47029,775.46436 q 0,-1.20093 0.0801,-2.56199 7.44577,-4.0031 16.01241,-4.0031 8.56664,0 12.2495,3.28255 3.76291,3.20248 3.76291,10.72831 l 0,17.05322 q 2.80218,0.56044 4.40342,1.36106 l 0,6.9654 q -4.08317,1.92149 -11.68906,1.92149 -0.80062,-2.08162 -1.36106,-5.04391 -3.44267,5.04391 -12.48968,5.04391 -5.36416,0 -9.20714,-3.12242 -3.76291,-3.12242 -3.76291,-8.48658 0,-5.36416 3.52273,-8.40652 3.60279,-3.12242 10.64825,-3.12242 l 8.72677,0 0,-3.84298 q 0,-6.24484 -6.64516,-6.24484 -2.48192,0 -4.08316,0.48037 -0.16013,3.36261 -0.96075,5.20404 l -7.84608,0 q -1.36105,-2.80218 -1.36105,-7.20559 z m 14.41117,26.58061 q 4.08316,0 6.48503,-2.40187 l 0,-6.56508 -5.60435,0 q -5.76447,0 -5.76447,4.40341 0,2.00155 1.20093,3.28254 1.281,1.281 3.68286,1.281 z" />
      <path
         id="path3500"
         style="font-style:normal;font-variant:normal;font-weight:normal;font-stretch:normal;font-family:'Patua One';-inkscape-font-specification:'Patua One';fill:#ffffff"
         d="m 353.67819,752.72673 q 4.48348,-1.0408 8.32645,-1.0408 3.84298,0 6.48503,0.24018 l 0,48.7578 q 3.12242,1.20093 4.40342,2.72211 l -0.80062,6.16478 -18.41428,0 -0.80062,-6.16478 q 1.12087,-1.52118 4.40341,-2.72211 l 0,-39.07029 q -2.80217,-0.96074 -4.40341,-2.72211 l 0.80062,-6.16478 z" />
      <path
         id="path3502"
         style="font-style:normal;font-variant:normal;font-weight:normal;font-stretch:normal;font-family:'Patua One';-inkscape-font-specification:'Patua One';fill:#ffffff"
         d="m 395.14284,769.53977 q 4.48348,-1.04081 8.32645,-1.04081 3.84298,0 6.48503,0.24019 l 0,31.94476 q 3.12242,1.20093 4.40342,2.72211 l -0.80063,6.16478 -18.41427,0 -0.80062,-6.16478 q 1.12087,-1.52118 4.40341,-2.72211 l 0,-22.25725 q -2.80217,-0.96075 -4.40341,-2.72211 l 0.80062,-6.16478 z m 9.04701,-5.52428 q -6.64515,0 -6.64515,-6.00466 0,-6.08472 6.64515,-6.08472 6.72522,0 6.72522,6.08472 0,6.00466 -6.72522,6.00466 z" />
      <path
         id="path3504"
         style="font-style:normal;font-variant:normal;font-weight:normal;font-stretch:normal;font-family:'Patua One';-inkscape-font-specification:'Patua One';fill:#ffffff"
         d="m 418.4384,769.53977 q 4.40342,-0.96075 7.92615,-0.96075 3.52273,0 5.84453,0.16013 l 0,4.0031 q 2.00155,-1.6813 5.2841,-2.72211 3.3626,-1.12087 6.40496,-1.12087 7.84608,0 10.9685,3.68286 3.20249,3.68285 3.20249,12.72987 l 0,15.37191 q 3.12242,1.20093 4.40341,2.72211 l -0.80062,6.16478 -18.41428,0 -0.80062,-6.16478 q 1.12087,-1.52118 4.40342,-2.72211 l 0,-15.85229 q 0,-4.32335 -1.44112,-5.76447 -1.36106,-1.52118 -4.96385,-1.52118 -3.60279,0 -7.20558,2.56199 l 0,20.57595 q 3.12242,1.20093 4.40341,2.72211 l -0.80062,6.16478 -18.41428,0 -0.80062,-6.16478 q 1.12087,-1.52118 4.40342,-2.72211 l 0,-22.25725 q -2.80218,-0.96075 -4.40342,-2.72211 l 0.80062,-6.16478 z" />
      <path
         id="path3506"
         style="font-style:normal;font-variant:normal;font-weight:normal;font-stretch:normal;font-family:'Patua One';-inkscape-font-specification:'Patua One';fill:#ffffff"
         d="m 469.7344,768.01859 q 0,-8.32646 3.6028,-12.48968 3.60279,-4.24329 11.44887,-4.24329 7.84608,0 13.61055,4.24329 0.0801,0.56043 0.0801,1.6813 0,1.04081 -0.56043,3.52273 -0.56043,2.48193 -1.52118,4.0031 l -6.72521,0 q -1.44112,-2.72211 -1.52118,-5.12397 -0.96075,-0.16012 -1.60124,-0.16012 -3.04236,0 -4.32335,1.6813 -1.281,1.6813 -1.281,6.08472 l 0,3.04236 12.2495,0 0,7.36571 -12.2495,0 0,22.65756 q 6.00466,1.20093 8.16633,3.12242 l -0.80062,6.16478 -22.17719,0 -0.80062,-6.16478 q 1.12087,-1.52118 4.40341,-2.72211 l 0,-23.05787 -3.52273,0 -0.88068,-5.52429 q 1.76137,-1.60124 4.40341,-1.84142 l 0,-2.24174 z" />
      <path
         id="path3508"
         style="font-style:normal;font-variant:normal;font-weight:normal;font-stretch:normal;font-family:'Patua One';-inkscape-font-specification:'Patua One';fill:#ffffff"
         d="m 495.81964,752.72673 q 4.48347,-1.0408 8.32645,-1.0408 3.84298,0 6.48503,0.24018 l 0,48.7578 q 3.12242,1.20093 4.40341,2.72211 l -0.80062,6.16478 -18.41427,0 -0.80062,-6.16478 q 1.12087,-1.52118 4.40341,-2.72211 l 0,-39.07029 q -2.80217,-0.96074 -4.40341,-2.72211 l 0.80062,-6.16478 z" />
      <path
         id="path3510"
         style="font-style:normal;font-variant:normal;font-weight:normal;font-stretch:normal;font-family:'Patua One';-inkscape-font-specification:'Patua One';fill:#ffffff"
         d="m 547.88375,806.20819 q -5.52428,4.00311 -13.05012,4.00311 -7.44577,0 -10.40807,-3.12242 -2.96229,-3.12242 -2.96229,-10.16789 l 0,-18.49433 q -2.80217,-0.96075 -4.40342,-2.72211 l 0.80062,-6.16478 q 4.48348,-1.04081 8.32646,-1.04081 3.84298,0 6.48503,0.24019 l 0,25.5398 q 0,4.32335 1.28099,5.76447 1.36105,1.36105 5.2841,1.36105 3.92304,0 7.28564,-2.56199 l 0,-20.41582 q -2.80217,-0.96075 -4.40341,-2.72211 l 0.80062,-6.16478 q 4.48348,-1.04081 8.32646,-1.04081 3.84298,0 6.48502,0.24019 l 0,31.2242 q 2.80218,0.56044 4.40342,1.36106 l 0,6.3249 q -4.80373,2.56199 -12.08938,2.56199 -2.00155,-1.44112 -2.16167,-4.00311 z" />
      <path
         id="path3512"
         style="font-style:normal;font-variant:normal;font-weight:normal;font-stretch:normal;font-family:'Patua One';-inkscape-font-specification:'Patua One';fill:#ffffff"
         d="m 584.62346,810.2113 q -9.60745,0 -14.49123,-5.12397 -4.80373,-5.12398 -4.80373,-14.89155 0,-5.92459 1.68131,-10.16788 1.6813,-4.32335 4.56353,-6.64515 5.60435,-4.48348 13.05012,-4.48348 7.44577,0 11.36881,3.84298 4.00311,3.76292 4.00311,13.61055 0,5.76447 -5.68441,5.76447 l -17.37347,0 q 0.32025,5.04391 2.56199,7.12552 2.3218,2.08162 7.28565,2.08162 2.72211,0 5.20403,-0.6405 2.48193,-0.64049 3.60279,-1.28099 l 1.12087,-0.6405 2.40187,6.40497 q -0.48038,0.56043 -1.44112,1.44111 -0.88068,0.80063 -4.6436,2.24174 -3.68286,1.36106 -8.40652,1.36106 z m 5.04391,-25.21955 q 0.16013,-1.12087 0.16013,-2.72211 0,-1.60124 -1.281,-3.36261 -1.28099,-1.84143 -4.48347,-1.84143 -3.12242,0 -4.80373,1.92149 -1.6813,1.92149 -2.24173,6.48503 l 12.6498,-0.48037 z" />
      <path
         id="path3514"
         style="font-style:normal;font-variant:normal;font-weight:normal;font-stretch:normal;font-family:'Patua One';-inkscape-font-specification:'Patua One';fill:#ffffff"
         d="m 604.8329,769.53977 q 4.40342,-0.96075 7.92615,-0.96075 3.52273,0 5.84453,0.16013 l 0,4.0031 q 2.00155,-1.6813 5.2841,-2.72211 3.3626,-1.12087 6.40496,-1.12087 7.84608,0 10.9685,3.68286 3.20249,3.68285 3.20249,12.72987 l 0,15.37191 q 3.12242,1.20093 4.40341,2.72211 l -0.80062,6.16478 -18.41428,0 -0.80062,-6.16478 q 1.12087,-1.52118 4.40342,-2.72211 l 0,-15.85229 q 0,-4.32335 -1.44112,-5.76447 -1.36105,-1.52118 -4.96385,-1.52118 -3.60279,0 -7.20558,2.56199 l 0,20.57595 q 3.12242,1.20093 4.40341,2.72211 l -0.80062,6.16478 -18.41428,0 -0.80062,-6.16478 q 1.12087,-1.52118 4.40342,-2.72211 l 0,-22.25725 q -2.80217,-0.96075 -4.40342,-2.72211 l 0.80062,-6.16478 z" />
      <path
         id="path3516"
         style="font-style:normal;font-variant:normal;font-weight:normal;font-stretch:normal;font-family:'Patua One';-inkscape-font-specification:'Patua One';fill:#ffffff"
         d="m 670.54005,777.0656 q -7.36571,0 -7.36571,12.64981 0,6.40496 2.00155,8.96695 2.08161,2.48192 5.92459,2.48192 6.08472,0 10.72832,-1.12086 l 2.40186,6.16477 q -2.56199,1.68131 -6.88534,2.88224 -4.32335,1.12087 -8.40652,1.12087 -17.2934,0 -17.2934,-20.01552 0,-11.68906 6.00465,-16.81303 5.36416,-4.48348 13.05012,-4.48348 7.68596,0 12.80993,2.88224 0.0801,0.80062 0.0801,1.52118 0,4.56353 -2.08161,8.6467 l -7.04546,0 q -1.12087,-2.00155 -1.36106,-4.80373 -0.96074,-0.0801 -2.56198,-0.0801 z" />
      <path
         id="path3518"
         style="font-style:normal;font-variant:normal;font-weight:normal;font-stretch:normal;font-family:'Patua One';-inkscape-font-specification:'Patua One';fill:#ffffff"
         d="m 706.90575,810.2113 q -9.60745,0 -14.49123,-5.12397 -4.80373,-5.12398 -4.80373,-14.89155 0,-5.92459 1.6813,-10.16788 1.68131,-4.32335 4.56354,-6.64515 5.60435,-4.48348 13.05012,-4.48348 7.44577,0 11.36881,3.84298 4.00311,3.76292 4.00311,13.61055 0,5.76447 -5.68441,5.76447 l -17.37347,0 q 0.32025,5.04391 2.56199,7.12552 2.3218,2.08162 7.28564,2.08162 2.72211,0 5.20404,-0.6405 2.48192,-0.64049 3.60279,-1.28099 l 1.12087,-0.6405 2.40186,6.40497 q -0.48037,0.56043 -1.44111,1.44111 -0.88069,0.80063 -4.6436,2.24174 -3.68286,1.36106 -8.40652,1.36106 z m 5.04391,-25.21955 q 0.16012,-1.12087 0.16012,-2.72211 0,-1.60124 -1.28099,-3.36261 -1.28099,-1.84143 -4.48348,-1.84143 -3.12242,0 -4.80372,1.92149 -1.6813,1.92149 -2.24174,6.48503 l 12.64981,-0.48037 z" />
    </g>
    <g
       id="text3344-7-5-9"
       style="font-style:normal;font-weight:normal;font-size:49.37945557px;line-height:125%;font-family:sans-serif;letter-spacing:0px;word-spacing:0px;fill:#000000;fill-opacity:1;stroke:none;stroke-width:1px;stroke-linecap:butt;stroke-linejoin:miter;stroke-opacity:1">
      <path
         id="path3429"
         style="font-style:normal;font-variant:normal;font-weight:normal;font-stretch:normal;font-family:'Patua One';-inkscape-font-specification:'Patua One';fill:#ffffff"
         d="m 40.017354,874.78938 q -5.826776,0 -8.641405,-3.1109 -2.814629,-3.11091 -2.814629,-9.3821 0,-6.32057 3.110906,-9.62899 3.160285,-3.35781 9.03644,-3.35781 5.876155,0 8.690784,2.96277 2.864009,2.96277 2.864009,9.28334 0,6.27119 -3.209665,9.77713 -3.160285,3.45656 -9.03644,3.45656 z m -4.345392,-12.93741 q 0,7.90071 4.740427,7.90071 2.419594,0 3.555321,-1.77766 1.185107,-1.82704 1.185107,-5.92554 0,-7.70319 -4.839186,-7.70319 -2.370214,0 -3.505942,1.72828 -1.135727,1.6789 -1.135727,5.7774 z" />
      <path
         id="path3431"
         style="font-style:normal;font-variant:normal;font-weight:normal;font-stretch:normal;font-family:'Patua One';-inkscape-font-specification:'Patua One';fill:#ffffff"
         d="m 55.240885,849.70462 q 2.71587,-0.59255 4.888566,-0.59255 2.172696,0 3.6047,0.0988 l 0,2.46897 q 1.234487,-1.03697 3.259044,-1.6789 2.073937,-0.69132 3.950357,-0.69132 4.839186,0 6.764985,2.27146 1.975178,2.27145 1.975178,7.85133 l 0,9.48086 q 1.925799,0.74069 2.71587,1.6789 l -0.493794,3.80222 -11.357275,0 -0.493795,-3.80222 q 0.691313,-0.93821 2.715871,-1.6789 l 0,-9.77713 q 0,-2.66649 -0.888831,-3.55532 -0.83945,-0.93821 -3.061526,-0.93821 -2.222075,0 -4.444151,1.58014 l 0,12.69052 q 1.925799,0.74069 2.71587,1.6789 l -0.493794,3.80222 -11.357275,0 -0.493795,-3.80222 q 0.691313,-0.93821 2.71587,-1.6789 l 0,-13.72749 q -1.728281,-0.59255 -2.71587,-1.6789 l 0.493795,-3.80222 z" />
      <path
         id="path3433"
         style="font-style:normal;font-variant:normal;font-weight:normal;font-stretch:normal;font-family:'Patua One';-inkscape-font-specification:'Patua One';fill:#ffffff"
         d="m 118.56078,874.69062 -2.51835,-7.80195 q -0.79008,-2.37021 -1.23449,-5.92553 l -0.14814,-1.18511 -0.69131,0 q -0.4938,3.8516 -1.48139,7.06126 l -2.32083,7.85133 -7.01188,0 -6.221814,-19.40612 q -2.123317,-0.74069 -2.913388,-1.77766 l 0.493795,-3.80222 11.554797,0 0.49379,3.80222 q -0.88883,1.03697 -3.01215,1.77766 l 2.86401,12.59176 0.69131,0 q 0.54318,-2.61711 1.28387,-5.38236 l 3.3578,-12.69052 5.5305,0 3.30843,12.59176 1.23448,5.48112 0.69131,0 q 1.82704,-8.34513 2.46898,-11.20914 l 0.29627,-1.38262 q -2.22207,-0.79007 -2.96276,-1.77766 l 0.49379,-3.80222 10.96224,0 0.49379,3.80222 q -0.83945,1.13573 -3.1109,1.87642 l -6.17243,19.30736 -6.41933,0 z" />
      <path
         id="path3435"
         style="font-style:normal;font-variant:normal;font-weight:normal;font-stretch:normal;font-family:'Patua One';-inkscape-font-specification:'Patua One';fill:#ffffff"
         d="m 134.88995,839.33493 q 2.76525,-0.64193 5.13546,-0.64193 2.37021,0 3.99974,0.14814 l 0,12.34486 q 1.1851,-0.79007 3.16028,-1.33324 1.97518,-0.54318 3.50594,-0.54318 4.88857,0 6.76499,2.37022 1.87642,2.37021 1.87642,7.2094 l 0,10.02403 q 1.9258,0.74069 2.71587,1.6789 l -0.4938,3.80222 -11.35727,0 -0.4938,-3.80222 q 0.69132,-0.93821 2.71587,-1.6789 l 0,-9.77713 q 0,-2.66649 -0.88883,-3.55532 -0.83945,-0.93821 -3.1109,-0.93821 -2.27146,0 -4.39477,1.58014 l 0,12.69052 q 1.92579,0.74069 2.71587,1.6789 l -0.4938,3.80222 -11.35727,0 -0.4938,-3.80222 q 0.69131,-0.93821 2.71587,-1.6789 l 0,-24.09718 q -1.72828,-0.59255 -2.71587,-1.6789 l 0.4938,-3.80222 z" />
      <path
         id="path3437"
         style="font-style:normal;font-variant:normal;font-weight:normal;font-stretch:normal;font-family:'Patua One';-inkscape-font-specification:'Patua One';fill:#ffffff"
         d="m 175.2322,874.78938 q -5.82678,0 -8.64141,-3.1109 -2.81463,-3.11091 -2.81463,-9.3821 0,-6.32057 3.11091,-9.62899 3.16028,-3.35781 9.03644,-3.35781 5.87616,0 8.69078,2.96277 2.86401,2.96277 2.86401,9.28334 0,6.27119 -3.20966,9.77713 -3.16029,3.45656 -9.03644,3.45656 z m -4.34539,-12.93741 q 0,7.90071 4.74042,7.90071 2.4196,0 3.55532,-1.77766 1.18511,-1.82704 1.18511,-5.92554 0,-7.70319 -4.83919,-7.70319 -2.37021,0 -3.50594,1.72828 -1.13572,1.6789 -1.13572,5.7774 z" />
      <path
         id="path3439"
         style="font-style:normal;font-variant:normal;font-weight:normal;font-stretch:normal;font-family:'Patua One';-inkscape-font-specification:'Patua One';fill:#ffffff"
         d="m 224.36012,874.69062 -2.51835,-7.80195 q -0.79007,-2.37021 -1.23448,-5.92553 l -0.14814,-1.18511 -0.69131,0 q -0.4938,3.8516 -1.48139,7.06126 l -2.32083,7.85133 -7.01189,0 -6.22181,-19.40612 q -2.12331,-0.74069 -2.91339,-1.77766 l 0.4938,-3.80222 11.55479,0 0.4938,3.80222 q -0.88883,1.03697 -3.01215,1.77766 l 2.86401,12.59176 0.69131,0 q 0.54317,-2.61711 1.28387,-5.38236 l 3.3578,-12.69052 5.5305,0 3.30842,12.59176 1.23449,5.48112 0.69131,0 q 1.82704,-8.34513 2.46897,-11.20914 l 0.29628,-1.38262 q -2.22208,-0.79007 -2.96277,-1.77766 l 0.4938,-3.80222 10.96224,0 0.49379,3.80222 q -0.83945,1.13573 -3.1109,1.87642 l -6.17244,19.30736 -6.41933,0 z" />
      <path
         id="path3441"
         style="font-style:normal;font-variant:normal;font-weight:normal;font-stretch:normal;font-family:'Patua One';-inkscape-font-specification:'Patua One';fill:#ffffff"
         d="m 251.90537,874.78938 q -5.82678,0 -8.64141,-3.1109 -2.81462,-3.11091 -2.81462,-9.3821 0,-6.32057 3.1109,-9.62899 3.16029,-3.35781 9.03644,-3.35781 5.87616,0 8.69079,2.96277 2.864,2.96277 2.864,9.28334 0,6.27119 -3.20966,9.77713 -3.16029,3.45656 -9.03644,3.45656 z m -4.34539,-12.93741 q 0,7.90071 4.74043,7.90071 2.41959,0 3.55532,-1.77766 1.1851,-1.82704 1.1851,-5.92554 0,-7.70319 -4.83918,-7.70319 -2.37022,0 -3.50595,1.72828 -1.13572,1.6789 -1.13572,5.7774 z" />
      <path
         id="path3443"
         style="font-style:normal;font-variant:normal;font-weight:normal;font-stretch:normal;font-family:'Patua One';-inkscape-font-specification:'Patua One';fill:#ffffff"
         d="m 284.85612,872.32041 q -3.40718,2.46897 -8.04885,2.46897 -4.59229,0 -6.41933,-1.92579 -1.82704,-1.9258 -1.82704,-6.2712 l 0,-11.40665 q -1.72828,-0.59255 -2.71587,-1.6789 l 0.49379,-3.80222 q 2.76525,-0.64193 5.13547,-0.64193 2.37021,0 3.99973,0.14814 l 0,15.75204 q 0,2.66649 0.79007,3.55532 0.83945,0.83945 3.25905,0.83945 2.41959,0 4.49353,-1.58014 l 0,-12.59176 q -1.72828,-0.59255 -2.71587,-1.6789 l 0.49379,-3.80222 q 2.76525,-0.64193 5.13546,-0.64193 2.37022,0 3.99974,0.14814 l 0,19.25798 q 1.72828,0.34566 2.71587,0.83945 l 0,3.90098 q -2.96277,1.58014 -7.4563,1.58014 -1.23448,-0.88883 -1.33324,-2.46897 z" />
      <path
         id="path3445"
         style="font-style:normal;font-variant:normal;font-weight:normal;font-stretch:normal;font-family:'Patua One';-inkscape-font-specification:'Patua One';fill:#ffffff"
         d="m 295.56608,839.33493 q 2.76525,-0.64193 5.13546,-0.64193 2.37022,0 3.99974,0.14814 l 0,30.07209 q 1.9258,0.74069 2.71587,1.6789 l -0.4938,3.80222 -11.35727,0 -0.4938,-3.80222 q 0.69132,-0.93821 2.71587,-1.6789 l 0,-24.09718 q -1.72828,-0.59255 -2.71587,-1.6789 l 0.4938,-3.80222 z" />
      <path
         id="path3447"
         style="font-style:normal;font-variant:normal;font-weight:normal;font-stretch:normal;font-family:'Patua One';-inkscape-font-specification:'Patua One';fill:#ffffff"
         d="m 322.295,839.33493 q 2.81463,-0.64193 5.38236,-0.64193 2.56773,0 4.39477,0.14814 l 0,29.62767 q 1.48139,0.2469 2.71587,0.83945 l 0,3.90098 q -2.96276,1.58014 -7.50567,1.58014 -0.4938,-0.24689 -0.98759,-0.88883 -0.44442,-0.64193 -0.4938,-1.23448 -1.08635,0.88883 -2.81463,1.53076 -1.72828,0.59255 -3.40718,0.59255 -5.33298,0 -7.75257,-2.864 -2.37022,-2.91339 -2.37022,-9.48086 0,-7.4563 3.65408,-10.46844 3.20967,-2.6665 7.90071,-2.6665 2.07394,0 4.14788,0.4938 l 0,-4.88857 q -2.27146,-0.64193 -3.3578,-1.77766 l 0.49379,-3.80222 z m -1.6789,30.41775 q 2.81463,0 4.54291,-1.6789 l 0,-13.2337 q -2.02456,-0.49379 -4.29601,-0.49379 -2.27146,0 -3.30843,2.02456 -0.98759,1.97518 -0.98759,5.97491 0,3.95036 0.98759,5.67864 0.98759,1.72828 3.06153,1.72828 z" />
      <path
         id="path3449"
         style="font-style:normal;font-variant:normal;font-weight:normal;font-stretch:normal;font-family:'Patua One';-inkscape-font-specification:'Patua One';fill:#ffffff"
         d="m 362.75144,855.77829 q -3.75284,0 -5.18484,1.43201 l 0,11.30789 q 3.99973,0.74069 5.48112,2.07394 l -0.4938,3.80222 -14.12252,0 -0.4938,-3.80222 q 0.69132,-0.93821 2.71587,-1.6789 l 0,-13.72749 q -1.72828,-0.59255 -2.71587,-1.6789 l 0.4938,-3.80222 q 2.71587,-0.59255 4.88856,-0.59255 2.1727,0 3.6047,0.0988 l 0,3.1109 q 1.13573,-1.33324 2.91339,-2.17269 1.77766,-0.88883 3.20967,-0.88883 1.48138,0 2.02455,0.24689 l -0.14813,6.41933 q -0.98759,-0.14814 -2.1727,-0.14814 z" />
      <path
         id="path3451"
         style="font-style:normal;font-variant:normal;font-weight:normal;font-stretch:normal;font-family:'Patua One';-inkscape-font-specification:'Patua One';fill:#ffffff"
         d="m 378.98109,874.78938 q -5.92554,0 -8.93768,-3.16028 -2.96277,-3.16029 -2.96277,-9.18458 0,-3.65408 1.03697,-6.27119 1.03696,-2.66649 2.81463,-4.0985 3.45656,-2.76525 8.04885,-2.76525 4.59229,0 7.01188,2.37022 2.46897,2.32083 2.46897,8.39451 0,3.55532 -3.50594,3.55532 l -10.71534,0 q 0.19752,3.1109 1.58014,4.39477 1.43201,1.28386 4.49353,1.28386 1.6789,0 3.20967,-0.39503 1.53076,-0.39504 2.22207,-0.79007 l 0.69131,-0.39504 1.48139,3.95036 q -0.29628,0.34565 -0.88883,0.88883 -0.54318,0.49379 -2.86401,1.38262 -2.27146,0.83945 -5.18484,0.83945 z m 3.1109,-15.55452 q 0.0988,-0.69132 0.0988,-1.67891 0,-0.98759 -0.79007,-2.07393 -0.79007,-1.13573 -2.76525,-1.13573 -1.9258,0 -2.96277,1.18511 -1.03697,1.1851 -1.38262,3.99973 l 7.80195,-0.29627 z" />
      <path
         id="path3453"
         style="font-style:normal;font-variant:normal;font-weight:normal;font-stretch:normal;font-family:'Patua One';-inkscape-font-specification:'Patua One';fill:#ffffff"
         d="m 390.90235,849.70462 q 2.71587,-0.59255 4.88857,-0.59255 2.1727,0 3.6047,0.0988 l 0,2.41959 q 3.30842,-2.32084 7.06126,-2.32084 4.93795,0 7.16002,2.81463 2.22208,2.81463 2.22208,9.3821 0,3.50594 -1.03697,6.17243 -1.03697,2.66649 -2.81463,4.14788 -3.40718,2.96276 -8.09823,2.96276 -2.02456,0 -3.8516,-0.39503 l 0,4.24663 q 2.91339,0.79007 3.75284,1.82704 l -0.49379,3.80222 -12.39425,0 -0.49379,-3.80222 q 0.64193,-0.88883 2.71587,-1.6789 l 0,-23.60338 q -1.72828,-0.59255 -2.71587,-1.6789 l 0.49379,-3.80222 z m 12.49301,20.04806 q 2.46897,0 3.90097,-2.1727 1.43201,-2.22207 1.43201,-6.07367 0,-3.90098 -0.79007,-5.33298 -0.79008,-1.43201 -2.86401,-1.43201 -3.16029,0 -5.03671,1.48139 l 0,13.13493 q 1.53077,0.39504 3.35781,0.39504 z" />
      <path
         id="path3455"
         style="font-style:normal;font-variant:normal;font-weight:normal;font-stretch:normal;font-family:'Patua One';-inkscape-font-specification:'Patua One';fill:#ffffff"
         d="m 433.25217,855.77829 q -3.75284,0 -5.18484,1.43201 l 0,11.30789 q 3.99974,0.74069 5.48112,2.07394 l -0.49379,3.80222 -14.12253,0 -0.49379,-3.80222 q 0.69131,-0.93821 2.71587,-1.6789 l 0,-13.72749 q -1.72828,-0.59255 -2.71587,-1.6789 l 0.49379,-3.80222 q 2.71587,-0.59255 4.88857,-0.59255 2.17269,0 3.6047,0.0988 l 0,3.1109 q 1.13572,-1.33324 2.91339,-2.17269 1.77766,-0.88883 3.20966,-0.88883 1.48138,0 2.02456,0.24689 l -0.14814,6.41933 q -0.98759,-0.14814 -2.1727,-0.14814 z" />
      <path
         id="path3457"
         style="font-style:normal;font-variant:normal;font-weight:normal;font-stretch:normal;font-family:'Patua One';-inkscape-font-specification:'Patua One';fill:#ffffff"
         d="m 449.48182,874.78938 q -5.92554,0 -8.93768,-3.16028 -2.96277,-3.16029 -2.96277,-9.18458 0,-3.65408 1.03697,-6.27119 1.03697,-2.66649 2.81463,-4.0985 3.45656,-2.76525 8.04885,-2.76525 4.59229,0 7.01188,2.37022 2.46897,2.32083 2.46897,8.39451 0,3.55532 -3.50594,3.55532 l -10.71534,0 q 0.19752,3.1109 1.58014,4.39477 1.43201,1.28386 4.49353,1.28386 1.67891,0 3.20967,-0.39503 1.53076,-0.39504 2.22207,-0.79007 l 0.69132,-0.39504 1.48138,3.95036 q -0.29628,0.34565 -0.88883,0.88883 -0.54317,0.49379 -2.86401,1.38262 -2.27145,0.83945 -5.18484,0.83945 z m 3.1109,-15.55452 q 0.0988,-0.69132 0.0988,-1.67891 0,-0.98759 -0.79007,-2.07393 -0.79007,-1.13573 -2.76525,-1.13573 -1.9258,0 -2.96276,1.18511 -1.03697,1.1851 -1.38263,3.99973 l 7.80195,-0.29627 z" />
      <path
         id="path3459"
         style="font-style:normal;font-variant:normal;font-weight:normal;font-stretch:normal;font-family:'Patua One';-inkscape-font-specification:'Patua One';fill:#ffffff"
         d="m 471.32839,853.75374 q -3.25905,0 -3.25905,1.92579 0,1.82704 3.40719,2.71587 l 3.90097,1.03697 q 6.0243,1.58015 6.0243,6.96251 0,3.70346 -2.61711,6.07367 -2.56774,2.32083 -8.24637,2.32083 -5.62926,0 -8.78955,-1.58014 -0.0494,-0.54317 -0.0494,-1.08635 0,-2.71587 1.08635,-4.88856 l 4.0985,0 q 0.64193,1.1851 0.83945,2.46897 0.98759,0.29628 2.81463,0.29628 4.34539,0 4.34539,-2.46898 0,-0.79007 -0.59256,-1.28386 -0.59255,-0.54318 -2.32083,-1.03697 l -3.90098,-1.13573 q -3.01214,-0.83945 -4.69104,-2.46897 -1.67891,-1.6789 -1.67891,-4.88857 0,-3.25904 2.61711,-5.33298 2.61712,-2.07394 7.4563,-2.07394 4.88857,0 8.24637,1.43201 0.0494,0.49379 0.0494,0.98759 0,2.56773 -1.08635,4.74043 l -4.04911,0 q -0.64194,-1.13573 -0.83945,-2.37022 -1.38263,-0.34565 -2.76525,-0.34565 z" />
      <path
         id="path3461"
         style="font-style:normal;font-variant:normal;font-weight:normal;font-stretch:normal;font-family:'Patua One';-inkscape-font-specification:'Patua One';fill:#ffffff"
         d="m 495.58219,874.78938 q -5.92553,0 -8.93768,-3.16028 -2.96277,-3.16029 -2.96277,-9.18458 0,-3.65408 1.03697,-6.27119 1.03697,-2.66649 2.81463,-4.0985 3.45656,-2.76525 8.04885,-2.76525 4.59229,0 7.01188,2.37022 2.46898,2.32083 2.46898,8.39451 0,3.55532 -3.50594,3.55532 l -10.71535,0 q 0.19752,3.1109 1.58015,4.39477 1.432,1.28386 4.49353,1.28386 1.6789,0 3.20966,-0.39503 1.53076,-0.39504 2.22208,-0.79007 l 0.69131,-0.39504 1.48138,3.95036 q -0.29627,0.34565 -0.88883,0.88883 -0.54317,0.49379 -2.86401,1.38262 -2.27145,0.83945 -5.18484,0.83945 z m 3.11091,-15.55452 q 0.0988,-0.69132 0.0988,-1.67891 0,-0.98759 -0.79008,-2.07393 -0.79007,-1.13573 -2.76524,-1.13573 -1.9258,0 -2.96277,1.18511 -1.03697,1.1851 -1.38263,3.99973 l 7.80196,-0.29627 z" />
      <path
         id="path3463"
         style="font-style:normal;font-variant:normal;font-weight:normal;font-stretch:normal;font-family:'Patua One';-inkscape-font-specification:'Patua One';fill:#ffffff"
         d="m 508.04663,849.70462 q 2.71587,-0.59255 4.88857,-0.59255 2.17269,0 3.6047,0.0988 l 0,2.46897 q 1.23449,-1.03697 3.25904,-1.6789 2.07394,-0.69132 3.95036,-0.69132 4.83919,0 6.76499,2.27146 1.97517,2.27145 1.97517,7.85133 l 0,9.48086 q 1.9258,0.74069 2.71587,1.6789 l -0.49379,3.80222 -11.35728,0 -0.49379,-3.80222 q 0.69131,-0.93821 2.71587,-1.6789 l 0,-9.77713 q 0,-2.66649 -0.88883,-3.55532 -0.83945,-0.93821 -3.06153,-0.93821 -2.22207,0 -4.44415,1.58014 l 0,12.69052 q 1.9258,0.74069 2.71587,1.6789 l -0.49379,3.80222 -11.35728,0 -0.49379,-3.80222 q 0.69131,-0.93821 2.71587,-1.6789 l 0,-13.72749 q -1.72828,-0.59255 -2.71587,-1.6789 l 0.49379,-3.80222 z" />
      <path
         id="path3465"
         style="font-style:normal;font-variant:normal;font-weight:normal;font-stretch:normal;font-family:'Patua One';-inkscape-font-specification:'Patua One';fill:#ffffff"
         d="m 545.9554,843.48281 0,6.22181 7.06126,0 0,4.14787 -7.06126,0 0,12.49301 q 0,1.58014 0.44441,2.32083 0.44442,0.69131 2.12332,0.69131 1.6789,0 3.6047,-0.74069 l 1.48138,3.8516 q -3.80222,1.9258 -7.80195,1.9258 -3.95036,0 -5.38236,-1.6789 -1.38263,-1.72828 -1.38263,-4.98733 l 0,-13.87563 -2.22207,0 -0.54318,-3.01214 q 0.79007,-0.93821 3.25905,-1.87642 0.59255,-4.04912 2.81463,-5.48112 l 3.6047,0 z" />
      <path
         id="path3467"
         style="font-style:normal;font-variant:normal;font-weight:normal;font-stretch:normal;font-family:'Patua One';-inkscape-font-specification:'Patua One';fill:#ffffff"
         d="m 585.04927,846.1493 q -1.48139,-0.64193 -4.44415,-0.64193 -2.96277,0 -4.78981,2.56773 -1.82704,2.56773 -1.82704,8.98706 0,6.41933 1.72828,9.1352 1.77766,2.66649 5.23422,2.66649 5.2836,0 9.48086,-1.58014 l 1.77766,4.39477 q -5.23423,3.1109 -12.29549,3.1109 -7.06126,0 -10.22154,-3.99973 -3.11091,-3.99974 -3.11091,-13.08556 0,-9.08582 3.8516,-13.43121 3.90097,-4.34539 10.91286,-4.34539 5.62925,0 10.71534,3.1109 0,0.29628 0,1.13573 0,0.83945 -0.34566,2.86401 -0.34565,2.02456 -0.98759,3.30842 l -4.69104,0 q -0.69132,-1.33324 -0.98759,-4.19725 z" />
      <path
         id="path3469"
         style="font-style:normal;font-variant:normal;font-weight:normal;font-stretch:normal;font-family:'Patua One';-inkscape-font-specification:'Patua One';fill:#ffffff"
         d="m 595.53316,853.3587 q 0,-0.74069 0.0494,-1.58014 4.59229,-2.46898 9.87589,-2.46898 5.28361,0 7.55506,2.02456 2.32084,1.97518 2.32084,6.61685 l 0,10.51782 q 1.72828,0.34566 2.71587,0.83945 l 0,4.29602 q -2.51836,1.1851 -7.2094,1.1851 -0.4938,-1.28386 -0.83946,-3.1109 -2.12331,3.1109 -7.70319,3.1109 -3.30842,0 -5.67864,-1.92579 -2.32083,-1.9258 -2.32083,-5.23423 0,-3.30842 2.17269,-5.18484 2.22208,-1.9258 6.56747,-1.9258 l 5.38236,0 0,-2.37021 q 0,-3.8516 -4.09849,-3.8516 -1.53077,0 -2.51835,0.29628 -0.0988,2.07393 -0.59256,3.20966 l -4.83919,0 q -0.83945,-1.72828 -0.83945,-4.44415 z m 8.88831,16.39398 q 2.51835,0 3.99973,-1.48138 l 0,-4.04912 -3.45656,0 q -3.55532,0 -3.55532,2.71587 0,1.23449 0.74069,2.02456 0.79007,0.79007 2.27146,0.79007 z" />
      <path
         id="path3471"
         style="font-style:normal;font-variant:normal;font-weight:normal;font-stretch:normal;font-family:'Patua One';-inkscape-font-specification:'Patua One';fill:#ffffff"
         d="m 620.30774,849.70462 q 2.71587,-0.59255 4.88857,-0.59255 2.17269,0 3.6047,0.0988 l 0,2.46897 q 1.23448,-1.03697 3.25904,-1.6789 2.07394,-0.69132 3.95036,-0.69132 4.83918,0 6.76498,2.27146 1.97518,2.27145 1.97518,7.85133 l 0,9.48086 q 1.9258,0.74069 2.71587,1.6789 l -0.49379,3.80222 -11.35728,0 -0.49379,-3.80222 q 0.69131,-0.93821 2.71587,-1.6789 l 0,-9.77713 q 0,-2.66649 -0.88883,-3.55532 -0.83945,-0.93821 -3.06153,-0.93821 -2.22207,0 -4.44415,1.58014 l 0,12.69052 q 1.9258,0.74069 2.71587,1.6789 l -0.49379,3.80222 -11.35728,0 -0.49379,-3.80222 q 0.69131,-0.93821 2.71587,-1.6789 l 0,-13.72749 q -1.72828,-0.59255 -2.71587,-1.6789 l 0.49379,-3.80222 z" />
      <path
         id="path3473"
         style="font-style:normal;font-variant:normal;font-weight:normal;font-stretch:normal;font-family:'Patua One';-inkscape-font-specification:'Patua One';fill:#ffffff"
         d="m 650.217,853.3587 q 0,-0.74069 0.0494,-1.58014 4.59229,-2.46898 9.87589,-2.46898 5.2836,0 7.55506,2.02456 2.32083,1.97518 2.32083,6.61685 l 0,10.51782 q 1.72828,0.34566 2.71587,0.83945 l 0,4.29602 q -2.51835,1.1851 -7.2094,1.1851 -0.49379,-1.28386 -0.83945,-3.1109 -2.12331,3.1109 -7.70319,3.1109 -3.30843,0 -5.67864,-1.92579 -2.32083,-1.9258 -2.32083,-5.23423 0,-3.30842 2.17269,-5.18484 2.22208,-1.9258 6.56747,-1.9258 l 5.38236,0 0,-2.37021 q 0,-3.8516 -4.09849,-3.8516 -1.53077,0 -2.51836,0.29628 -0.0988,2.07393 -0.59255,3.20966 l -4.83919,0 Q 650.217,856.07457 650.217,853.3587 Z m 8.8883,16.39398 q 2.51836,0 3.99974,-1.48138 l 0,-4.04912 -3.45656,0 q -3.55532,0 -3.55532,2.71587 0,1.23449 0.74069,2.02456 0.79007,0.79007 2.27145,0.79007 z" />
      <path
         id="path3475"
         style="font-style:normal;font-variant:normal;font-weight:normal;font-stretch:normal;font-family:'Patua One';-inkscape-font-specification:'Patua One';fill:#ffffff"
         d="m 687.3365,839.33493 q 2.81463,-0.64193 5.38236,-0.64193 2.56774,0 4.39478,0.14814 l 0,29.62767 q 1.48138,0.2469 2.71587,0.83945 l 0,3.90098 q -2.96277,1.58014 -7.50568,1.58014 -0.4938,-0.24689 -0.98759,-0.88883 -0.44442,-0.64193 -0.49379,-1.23448 -1.08635,0.88883 -2.81463,1.53076 -1.72828,0.59255 -3.40719,0.59255 -5.33298,0 -7.75257,-2.864 -2.37021,-2.91339 -2.37021,-9.48086 0,-7.4563 3.65408,-10.46844 3.20966,-2.6665 7.90071,-2.6665 2.07394,0 4.14787,0.4938 l 0,-4.88857 q -2.27145,-0.64193 -3.3578,-1.77766 l 0.49379,-3.80222 z m -1.6789,30.41775 q 2.81463,0 4.54291,-1.6789 l 0,-13.2337 q -2.02456,-0.49379 -4.29601,-0.49379 -2.27146,0 -3.30842,2.02456 -0.98759,1.97518 -0.98759,5.97491 0,3.95036 0.98759,5.67864 0.98759,1.72828 3.06152,1.72828 z" />
      <path
         id="path3477"
         style="font-style:normal;font-variant:normal;font-weight:normal;font-stretch:normal;font-family:'Patua One';-inkscape-font-specification:'Patua One';fill:#ffffff"
         d="m 702.87557,853.3587 q 0,-0.74069 0.0494,-1.58014 4.59229,-2.46898 9.87589,-2.46898 5.2836,0 7.55506,2.02456 2.32083,1.97518 2.32083,6.61685 l 0,10.51782 q 1.72828,0.34566 2.71587,0.83945 l 0,4.29602 q -2.51835,1.1851 -7.2094,1.1851 -0.49379,-1.28386 -0.83945,-3.1109 -2.12331,3.1109 -7.70319,3.1109 -3.30843,0 -5.67864,-1.92579 -2.32083,-1.9258 -2.32083,-5.23423 0,-3.30842 2.17269,-5.18484 2.22208,-1.9258 6.56747,-1.9258 l 5.38236,0 0,-2.37021 q 0,-3.8516 -4.0985,-3.8516 -1.53076,0 -2.51835,0.29628 -0.0988,2.07393 -0.59255,3.20966 l -4.83919,0 q -0.83945,-1.72828 -0.83945,-4.44415 z m 8.8883,16.39398 q 2.51836,0 3.99974,-1.48138 l 0,-4.04912 -3.45656,0 q -3.55532,0 -3.55532,2.71587 0,1.23449 0.74069,2.02456 0.79007,0.79007 2.27145,0.79007 z" />
    </g>
    <g
       id="text3344-7-5-95"
       style="font-style:normal;font-weight:normal;font-size:115.7335968px;line-height:125%;font-family:sans-serif;letter-spacing:0px;word-spacing:0px;fill:#000000;fill-opacity:1;stroke:none;stroke-width:1px;stroke-linecap:butt;stroke-linejoin:miter;stroke-opacity:1">
      <path
         id="path3404"
         style="font-style:normal;font-variant:normal;font-weight:normal;font-stretch:normal;font-family:'Patua One';-inkscape-font-specification:'Patua One';fill:#ffffff"
         d="m 31.311924,922.27413 q 6.481081,-1.50453 12.036294,-1.50453 5.555213,0 9.374421,0.3472 l 0,46.1777 q 4.513611,1.736 6.365348,3.93494 l -1.157336,8.91149 -26.618727,0 -1.157336,-8.91149 q 1.62027,-2.19894 6.365348,-3.93494 l 0,-32.17394 q -4.050676,-1.3888 -6.365348,-3.93494 l 1.157336,-8.91149 z m 13.077896,-7.98562 q -9.605888,0 -9.605888,-8.68002 0,-8.79575 9.605888,-8.79575 9.721622,0 9.721622,8.79575 0,8.68002 -9.721622,8.68002 z" />
      <path
         id="path3406"
         style="font-style:normal;font-variant:normal;font-weight:normal;font-stretch:normal;font-family:'Patua One';-inkscape-font-specification:'Patua One';fill:#ffffff"
         d="m 64.986783,922.27413 q 6.365348,-1.3888 11.457626,-1.3888 5.092278,0 8.448553,0.23147 l 0,5.78668 q 2.89334,-2.43041 7.638417,-3.93495 4.860811,-1.62027 9.258691,-1.62027 11.34189,0 15.8555,5.32375 4.62934,5.32374 4.62934,18.40164 l 0,22.22085 q 4.51361,1.736 6.36535,3.93494 l -1.15733,8.91149 -26.61873,0 -1.157338,-8.91149 q 1.620268,-2.19894 6.365348,-3.93494 l 0,-22.91525 q 0,-6.24962 -2.0832,-8.33282 -1.96748,-2.19894 -7.175488,-2.19894 -5.208012,0 -10.416024,3.70348 l 0,29.74353 q 4.513611,1.736 6.365348,3.93494 l -1.157336,8.91149 -26.618727,0 -1.157336,-8.91149 q 1.62027,-2.19894 6.365348,-3.93494 l 0,-32.17394 q -4.050676,-1.3888 -6.365348,-3.93494 l 1.157336,-8.91149 z" />
      <path
         id="path3408"
         style="font-style:normal;font-variant:normal;font-weight:normal;font-stretch:normal;font-family:'Patua One';-inkscape-font-specification:'Patua One';fill:#ffffff"
         d="m 187.70056,952.36487 -5.20801,0 0,13.65656 q 8.44855,1.85174 10.53176,4.51361 l -1.15734,9.60589 -31.24807,0 -1.15734,-9.60589 q 1.50454,-1.96747 6.36535,-3.81921 l 0,-52.89025 q -4.74508,-1.736 -6.36535,-3.93494 l 1.15734,-9.60589 30.6694,0 q 16.08697,0.23147 23.95686,5.90241 7.98561,5.55521 7.98561,19.90618 0,26.27153 -35.53021,26.27153 z m 1.736,-39.46516 -6.94401,0 0,26.85019 7.75415,0 q 7.86988,0 11.68909,-3.1248 3.93494,-3.12481 3.93494,-10.76323 0,-7.75415 -4.28214,-10.30029 -4.16641,-2.66187 -12.15203,-2.66187 z" />
      <path
         id="path3410"
         style="font-style:normal;font-variant:normal;font-weight:normal;font-stretch:normal;font-family:'Patua One';-inkscape-font-specification:'Patua One';fill:#ffffff"
         d="m 231.15491,930.83842 q 0,-1.73601 0.11573,-3.70348 10.76323,-5.78668 23.14672,-5.78668 12.38349,0 17.70724,4.74508 5.43948,4.62934 5.43948,15.5083 l 0,24.65126 q 4.05068,0.81013 6.36535,1.96747 l 0,10.06882 q -5.90242,2.77761 -16.89711,2.77761 -1.15733,-3.00907 -1.96747,-7.29122 -4.97654,7.29122 -18.05444,7.29122 -7.75415,0 -13.30936,-4.51361 -5.43948,-4.51361 -5.43948,-12.26776 0,-7.75415 5.09228,-12.15203 5.20801,-4.51361 15.39256,-4.51361 l 12.61497,0 0,-5.55521 q 0,-9.02722 -9.60589,-9.02722 -3.58774,0 -5.90242,0.6944 -0.23146,4.86081 -1.3888,7.52268 l -11.34189,0 q -1.96747,-4.05067 -1.96747,-10.41602 z m 20.83204,38.42355 q 5.90242,0 9.37443,-3.47201 l 0,-9.49015 -8.10136,0 q -8.33282,0 -8.33282,6.36535 0,2.89334 1.73601,4.74507 1.85174,1.85174 5.32374,1.85174 z" />
      <path
         id="path3412"
         style="font-style:normal;font-variant:normal;font-weight:normal;font-stretch:normal;font-family:'Patua One';-inkscape-font-specification:'Patua One';fill:#ffffff"
         d="m 322.78337,936.50936 q -8.79576,0 -12.15203,3.35628 l 0,26.50299 q 9.37442,1.73601 12.84643,4.86081 l -1.15734,8.91149 -33.09981,0 -1.15733,-8.91149 q 1.62027,-2.19894 6.36535,-3.93494 l 0,-32.17394 q -4.05068,-1.3888 -6.36535,-3.93494 l 1.15733,-8.91149 q 6.36535,-1.3888 11.45763,-1.3888 5.09228,0 8.44855,0.23147 l 0,7.29121 q 2.66188,-3.1248 6.82828,-5.09228 4.16641,-2.0832 7.52269,-2.0832 3.47201,0 4.74508,0.57867 l -0.3472,15.04536 q -2.31468,-0.3472 -5.09228,-0.3472 z" />
      <path
         id="path3414"
         style="font-style:normal;font-variant:normal;font-weight:normal;font-stretch:normal;font-family:'Patua One';-inkscape-font-specification:'Patua One';fill:#ffffff"
         d="m 332.81421,897.97008 q 6.48108,-1.50454 12.0363,-1.50454 5.55521,0 9.37442,0.3472 l 0,70.48176 q 4.51361,1.736 6.36535,3.93494 l -1.15734,8.91149 -26.61873,0 -1.15733,-8.91149 q 1.62027,-2.19894 6.36534,-3.93494 l 0,-56.47799 q -4.05067,-1.38881 -6.36534,-3.93495 l 1.15733,-8.91148 z" />
      <path
         id="path3416"
         style="font-style:normal;font-variant:normal;font-weight:normal;font-stretch:normal;font-family:'Patua One';-inkscape-font-specification:'Patua One';fill:#ffffff"
         d="m 366.75852,922.27413 q 6.48108,-1.50453 12.03629,-1.50453 5.55521,0 9.37442,0.3472 l 0,46.1777 q 4.51361,1.736 6.36535,3.93494 l -1.15733,8.91149 -26.61873,0 -1.15734,-8.91149 q 1.62027,-2.19894 6.36535,-3.93494 l 0,-32.17394 q -4.05068,-1.3888 -6.36535,-3.93494 l 1.15734,-8.91149 z m 13.07789,-7.98562 q -9.60588,0 -9.60588,-8.68002 0,-8.79575 9.60588,-8.79575 9.72163,0 9.72163,8.79575 0,8.68002 -9.72163,8.68002 z" />
      <path
         id="path3418"
         style="font-style:normal;font-variant:normal;font-weight:normal;font-stretch:normal;font-family:'Patua One';-inkscape-font-specification:'Patua One';fill:#ffffff"
         d="m 401.5907,930.83842 q 0,-1.73601 0.11573,-3.70348 10.76323,-5.78668 23.14672,-5.78668 12.3835,0 17.70724,4.74508 5.43948,4.62934 5.43948,15.5083 l 0,24.65126 q 4.05068,0.81013 6.36535,1.96747 l 0,10.06882 q -5.90242,2.77761 -16.89711,2.77761 -1.15733,-3.00907 -1.96747,-7.29122 -4.97654,7.29122 -18.05444,7.29122 -7.75415,0 -13.30936,-4.51361 -5.43948,-4.51361 -5.43948,-12.26776 0,-7.75415 5.09228,-12.15203 5.20801,-4.51361 15.39256,-4.51361 l 12.61497,0 0,-5.55521 q 0,-9.02722 -9.60589,-9.02722 -3.58774,0 -5.90242,0.6944 -0.23146,4.86081 -1.3888,7.52268 l -11.34189,0 q -1.96747,-4.05067 -1.96747,-10.41602 z m 20.83205,38.42355 q 5.90241,0 9.37442,-3.47201 l 0,-9.49015 -8.10136,0 q -8.33281,0 -8.33281,6.36535 0,2.89334 1.736,4.74507 1.85174,1.85174 5.32375,1.85174 z" />
      <path
         id="path3420"
         style="font-style:normal;font-variant:normal;font-weight:normal;font-stretch:normal;font-family:'Patua One';-inkscape-font-specification:'Patua One';fill:#ffffff"
         d="m 459.65645,922.27413 q 6.36534,-1.3888 11.45762,-1.3888 5.09228,0 8.44855,0.23147 l 0,5.78668 q 2.77761,-2.31468 6.94402,-3.93495 4.16641,-1.62027 7.52268,-1.62027 13.19363,0 17.59151,6.59682 2.89334,-2.77761 7.63842,-4.62935 4.74508,-1.96747 8.79575,-1.96747 12.7307,0 17.12857,5.78668 4.39788,5.67095 4.39788,21.41072 l 0,18.74884 q 4.51361,1.736 6.36535,3.93494 l -1.15734,8.91149 -26.61873,0 -1.15733,-8.91149 q 1.62027,-2.19894 6.36535,-3.93494 l 0,-22.91525 q 0,-6.36535 -1.73601,-8.44855 -1.736,-2.08321 -6.94401,-2.08321 -5.09228,0 -9.72163,3.81921 0.57867,3.93494 0.57867,10.87896 l 0,18.74884 q 4.51361,1.736 6.36535,3.93494 l -1.15734,8.91149 -26.61872,0 -1.15734,-8.91149 q 1.62027,-2.19894 6.36535,-3.93494 l 0,-22.91525 q 0,-6.36535 -1.736,-8.44855 -1.73601,-2.08321 -6.82829,-2.08321 -5.09228,0 -9.72162,3.70348 l 0,29.74353 q 4.51361,1.736 6.36535,3.93494 l -1.15734,8.91149 -26.61872,0 -1.15734,-8.91149 q 1.62027,-2.19894 6.36535,-3.93494 l 0,-32.17394 q -4.05068,-1.3888 -6.36535,-3.93494 l 1.15734,-8.91149 z" />
      <path
         id="path3422"
         style="font-style:normal;font-variant:normal;font-weight:normal;font-stretch:normal;font-family:'Patua One';-inkscape-font-specification:'Patua One';fill:#ffffff"
         d="m 587.76809,981.0668 q -13.88803,0 -20.94778,-7.40695 -6.94401,-7.40695 -6.94401,-21.52645 0,-8.56429 2.4304,-14.69817 2.43041,-6.24961 6.59682,-9.60589 8.10135,-6.48108 18.86457,-6.48108 10.76323,0 16.43417,5.55522 5.78668,5.43947 5.78668,19.67471 0,8.33282 -8.21708,8.33282 l -25.11419,0 q 0.46293,7.29121 3.70347,10.30029 3.35628,3.00907 10.53176,3.00907 3.93494,0 7.52268,-0.92587 3.58775,-0.92587 5.20802,-1.85174 l 1.62027,-0.92587 3.472,9.25869 q -0.6944,0.81014 -2.0832,2.08321 -1.27307,1.15733 -6.71255,3.24054 -5.32375,1.96747 -12.15203,1.96747 z m 7.29122,-36.45608 q 0.23147,-1.62027 0.23147,-3.93495 0,-2.31467 -1.85174,-4.86081 -1.85174,-2.66187 -6.48108,-2.66187 -4.51361,0 -6.94402,2.77761 -2.4304,2.7776 -3.24054,9.37442 l 18.28591,-0.6944 z" />
      <path
         id="path3424"
         style="font-style:normal;font-variant:normal;font-weight:normal;font-stretch:normal;font-family:'Patua One';-inkscape-font-specification:'Patua One';fill:#ffffff"
         d="m 616.98182,922.27413 q 6.36535,-1.3888 11.45763,-1.3888 5.09228,0 8.44855,0.23147 l 0,5.78668 q 2.89334,-2.43041 7.63842,-3.93495 4.86081,-1.62027 9.25869,-1.62027 11.34189,0 15.8555,5.32375 4.62934,5.32374 4.62934,18.40164 l 0,22.22085 q 4.51361,1.736 6.36535,3.93494 l -1.15733,8.91149 -26.61873,0 -1.15734,-8.91149 q 1.62027,-2.19894 6.36535,-3.93494 l 0,-22.91525 q 0,-6.24962 -2.0832,-8.33282 -1.96748,-2.19894 -7.17549,-2.19894 -5.20801,0 -10.41602,3.70348 l 0,29.74353 q 4.51361,1.736 6.36535,3.93494 l -1.15734,8.91149 -26.61873,0 -1.15733,-8.91149 q 1.62027,-2.19894 6.36535,-3.93494 l 0,-32.17394 q -4.05068,-1.3888 -6.36535,-3.93494 l 1.15733,-8.91149 z" />
      <path
         id="path3426"
         style="font-style:normal;font-variant:normal;font-weight:normal;font-stretch:normal;font-family:'Patua One';-inkscape-font-specification:'Patua One';fill:#ffffff"
         d="m 705.83081,907.6917 0,14.58243 16.54991,0 0,9.72162 -16.54991,0 0,29.2806 q 0,3.70348 1.0416,5.43948 1.04161,1.62027 4.97655,1.62027 3.93494,0 8.44855,-1.736 l 3.47201,9.02722 q -8.91149,4.51361 -18.28591,4.51361 -9.25869,0 -12.61496,-3.93494 -3.24054,-4.05068 -3.24054,-11.6891 l 0,-32.52114 -5.20801,0 -1.27307,-7.05975 q 1.85174,-2.19893 7.63842,-4.39787 1.3888,-9.49016 6.59681,-12.84643 l 8.44855,0 z" />
    </g>
    <path
       id="rect3456"
       d="m 25.70853,41.492535 699.54266,0 0,6.765402 -699.54266,0 z"
       style="fill:#ffffff" />
    <path
       id="rect3456-1"
       d="m 31.797392,1008.3871 699.542668,0 0,6.7654 -699.542668,0 z"
       style="fill:#ffffff" />
  </g>
</svg>
